<svg width="21" height="19" viewBox="0 0 21 19" fill="none" xmlns="http://www.w3.org/2000/svg">
<rect x="0.25" y="3.25" width="20.5" height="15.5" rx="2.75" fill="white" stroke="#6927FF" stroke-width="0.5"/>
<path d="M0 6C0 4.34315 1.34315 3 3 3H18C19.6569 3 21 4.34315 21 6V8H0V6Z" fill="#837DFF"/>
<rect x="3.75" y="0.25" width="5.5" height="1.5" rx="0.75" transform="rotate(90 3.75 0.25)" fill="#6927FF" stroke="#6927FF" stroke-width="0.5"/>
<rect x="18.75" y="0.25" width="5.5" height="1.5" rx="0.75" transform="rotate(90 18.75 0.25)" fill="#6927FF" stroke="#6927FF" stroke-width="0.5"/>
<rect x="2" y="9" width="2" height="2" fill="#837DFF"/>
<rect x="5" y="9" width="2" height="2" fill="#837DFF"/>
<rect x="8" y="9" width="2" height="2" fill="#837DFF"/>
<rect x="11" y="9" width="2" height="2" fill="#837DFF"/>
<rect x="14" y="9" width="2" height="2" fill="#837DFF"/>
<rect x="17" y="9" width="2" height="2" fill="#837DFF"/>
<rect x="2" y="12" width="2" height="2" fill="#837DFF"/>
<rect x="5" y="12" width="2" height="2" fill="#837DFF"/>
<rect x="8" y="12" width="2" height="2" fill="#837DFF"/>
<rect x="11" y="12" width="2" height="2" fill="#837DFF"/>
<rect x="14" y="12" width="2" height="2" fill="#837DFF"/>
<rect x="17" y="12" width="2" height="2" fill="#837DFF"/>
<rect x="5" y="15" width="2" height="2" fill="#837DFF"/>
<rect x="8" y="15" width="2" height="2" fill="#837DFF"/>
<rect x="11" y="15" width="2" height="2" fill="#837DFF"/>
<rect x="14" y="15" width="2" height="2" fill="#837DFF"/>
</svg>
