<svg width="21" height="19" viewBox="0 0 21 19" fill="none" xmlns="http://www.w3.org/2000/svg">
<path d="M9.41171 0.25H12.1617V17.75H9.41171C4.57922 17.75 0.661713 13.8325 0.661713 9C0.661713 4.16751 4.57922 0.25 9.41171 0.25Z" fill="#837DFF" stroke="#6927FF" stroke-width="0.5"/>
<path d="M20.1617 9C20.1617 13.8604 16.6574 17.75 12.3935 17.75C8.12964 17.75 4.62534 13.8604 4.62534 9C4.62534 4.13957 8.12964 0.25 12.3935 0.25C16.6574 0.25 20.1617 4.13957 20.1617 9Z" fill="white" stroke="#6927FF" stroke-width="0.5"/>
<path d="M12.6596 4.186C13.2383 4.186 13.7236 4.26067 14.1156 4.41C14.517 4.55933 14.923 4.802 15.3336 5.138L14.6056 5.992C14.0176 5.516 13.397 5.278 12.7436 5.278C11.941 5.278 11.2923 5.586 10.7976 6.202C10.3123 6.818 10.0696 7.80733 10.0696 9.17C10.0696 10.4953 10.3123 11.4753 10.7976 12.11C11.283 12.7353 11.927 13.048 12.7296 13.048C13.1403 13.048 13.4996 12.978 13.8076 12.838C14.1156 12.698 14.4423 12.502 14.7876 12.25L15.4456 13.09C15.147 13.398 14.7643 13.6547 14.2976 13.86C13.831 14.0653 13.2943 14.168 12.6876 14.168C11.9036 14.168 11.2036 13.9767 10.5876 13.594C9.98097 13.202 9.50497 12.6327 9.15963 11.886C8.82363 11.13 8.65563 10.2247 8.65563 9.17C8.65563 8.11533 8.83297 7.21467 9.18763 6.468C9.5423 5.712 10.023 5.14267 10.6296 4.76C11.2363 4.37733 11.913 4.186 12.6596 4.186Z" fill="#6927FF"/>
</svg>
