<svg width="20" height="19" viewBox="0 0 20 19" fill="none" xmlns="http://www.w3.org/2000/svg">
<path fill-rule="evenodd" clip-rule="evenodd" d="M10.4289 16.25C15.1233 16.25 18.9289 12.6683 18.9289 8.25C18.9289 3.83172 15.1233 0.25 10.4289 0.25C5.73444 0.25 1.92886 3.83172 1.92886 8.25C1.92886 9.48456 2.22599 10.6538 2.75661 11.6979L0.428864 17.75L6.78533 15.4798C7.8896 15.9737 9.12494 16.25 10.4289 16.25Z" fill="#837DFF"/>
<path fill-rule="evenodd" clip-rule="evenodd" d="M10.4289 0.5C5.85802 0.5 2.17887 3.98386 2.17887 8.25C2.17887 9.44388 2.46609 10.5744 2.97948 11.5846L3.02989 11.6838L0.857732 17.3314L6.79577 15.2106L6.88739 15.2516C7.95987 15.7312 9.16047 16 10.4289 16C14.9997 16 18.6789 12.5161 18.6789 8.25C18.6789 3.98386 14.9997 0.5 10.4289 0.5ZM1.67887 8.25C1.67887 3.67959 5.61087 0 10.4289 0C15.2469 0 19.1789 3.67959 19.1789 8.25C19.1789 12.8204 15.2469 16.5 10.4289 16.5C9.12562 16.5 7.88803 16.2312 6.77567 15.7487L0 18.1686L2.48372 11.711C1.96724 10.6586 1.67887 9.48589 1.67887 8.25Z" fill="#6927FF"/>
<path d="M6.08453 7.964C6.44453 7.964 6.74453 8.084 6.98453 8.324C7.22453 8.564 7.34453 8.858 7.34453 9.206C7.34453 9.554 7.22453 9.854 6.98453 10.106C6.74453 10.346 6.44453 10.466 6.08453 10.466C5.73653 10.466 5.44253 10.346 5.20253 10.106C4.96253 9.854 4.84253 9.554 4.84253 9.206C4.84253 8.858 4.96253 8.564 5.20253 8.324C5.44253 8.084 5.73653 7.964 6.08453 7.964Z" fill="white"/>
<path d="M10.4087 7.964C10.7687 7.964 11.0687 8.084 11.3087 8.324C11.5487 8.564 11.6687 8.858 11.6687 9.206C11.6687 9.554 11.5487 9.854 11.3087 10.106C11.0687 10.346 10.7687 10.466 10.4087 10.466C10.0607 10.466 9.76675 10.346 9.52675 10.106C9.28675 9.854 9.16675 9.554 9.16675 9.206C9.16675 8.858 9.28675 8.564 9.52675 8.324C9.76675 8.084 10.0607 7.964 10.4087 7.964Z" fill="white"/>
<path d="M14.733 7.964C15.093 7.964 15.393 8.084 15.633 8.324C15.873 8.564 15.993 8.858 15.993 9.206C15.993 9.554 15.873 9.854 15.633 10.106C15.393 10.346 15.093 10.466 14.733 10.466C14.385 10.466 14.091 10.346 13.851 10.106C13.611 9.854 13.491 9.554 13.491 9.206C13.491 8.858 13.611 8.564 13.851 8.324C14.091 8.084 14.385 7.964 14.733 7.964Z" fill="white"/>
</svg>
