<svg width="11" height="22" viewBox="0 0 11 22" fill="none" xmlns="http://www.w3.org/2000/svg">
<path fill-rule="evenodd" clip-rule="evenodd" d="M7.41138 0.863034L7.41138 4.71498L5.07095 4.71498L5.07095 0.863034L7.41138 0.863034Z" fill="#837DFF"/>
<path fill-rule="evenodd" clip-rule="evenodd" d="M7.41138 17.246L7.41138 21.098L5.07095 21.098L5.07095 17.246L7.41138 17.246Z" fill="#837DFF"/>
<path d="M6.47519 3.9836C8.15249 3.9836 9.60876 4.51669 10.844 5.58289L8.99115 7.76729C8.60107 7.48124 8.2175 7.2602 7.84043 7.10417C7.47637 6.94814 7.0863 6.87012 6.67022 6.87012C5.87708 6.87012 5.25946 7.22769 4.81738 7.94282C4.3883 8.65795 4.17376 9.71764 4.17376 11.1219C4.17376 12.5262 4.3948 13.5794 4.83689 14.2815C5.27897 14.9706 5.90958 15.3152 6.72873 15.3152C7.17081 15.3152 7.58039 15.2242 7.95746 15.0421C8.34753 14.8601 8.77661 14.587 9.24469 14.223L11 16.4464C10.4539 16.9925 9.79079 17.4476 9.01065 17.8116C8.24351 18.1627 7.41786 18.3382 6.5337 18.3382C5.19445 18.3382 4.03724 18.0652 3.06206 17.5191C2.08688 16.96 1.33274 16.1408 0.799646 15.0616C0.266549 13.9824 0 12.6692 0 11.1219C0 9.63963 0.27305 8.3654 0.81915 7.2992C1.36525 6.22001 2.12589 5.40086 3.10107 4.84175C4.07625 4.26965 5.20095 3.9836 6.47519 3.9836Z" fill="#837DFF"/>
</svg>
