<svg width="295" height="321" viewBox="0 0 295 321" fill="none" xmlns="http://www.w3.org/2000/svg">
<path opacity="0.1" d="M158.168 320.528C233.35 320.528 294.298 314.589 294.298 307.264C294.298 299.938 233.35 294 158.168 294C82.985 294 22.0375 299.938 22.0375 307.264C22.0375 314.589 82.985 320.528 158.168 320.528Z" fill="#837DFF"/>
<path fill-rule="evenodd" clip-rule="evenodd" d="M112.044 0H221.235C229.098 0 235.473 6.37325 235.473 14.235V63.4574H236.454C236.958 63.4574 237.367 63.8664 237.367 64.3708V96.4545C237.367 96.9589 236.958 97.3679 236.454 97.3679H235.473V265.508C235.473 273.37 229.098 279.743 221.235 279.743H112.044C104.181 279.743 97.8065 273.37 97.8065 265.508V103.159H97.0964C96.7417 103.159 96.4542 102.872 96.4542 102.517V84.2018C96.4542 83.8471 96.7417 83.5596 97.0964 83.5596H97.8065V76.7632H97.0885C96.7161 76.7632 96.4143 76.4614 96.4143 76.0891V58.0051C96.4143 57.6328 96.7161 57.3311 97.0885 57.3311H97.8065V48.0538H97.0964C96.766 48.0538 96.4981 47.7859 96.4981 47.4555V37.4882C96.4981 37.1577 96.766 36.8899 97.0964 36.8899H97.8065V14.235C97.8065 6.37325 104.181 0 112.044 0Z" fill="#35302A" fill-opacity="0.17"/>
<path d="M226.972 18.2156V261.516C226.971 264.414 225.818 267.194 223.768 269.244C221.717 271.293 218.937 272.444 216.037 272.444H117.242C114.342 272.444 111.562 271.293 109.511 269.244C107.461 267.194 106.309 264.414 106.307 261.516V18.2156C106.307 16.7799 106.59 15.3583 107.14 14.0319C107.689 12.7055 108.495 11.5003 109.51 10.4851C110.525 9.46994 111.731 8.66465 113.057 8.11524C114.384 7.56583 115.806 7.28305 117.242 7.28305H132.026V9.18159C132.03 11.5667 132.98 13.8527 134.668 15.5381C136.356 17.2235 138.644 18.1707 141.029 18.1717H191.293C192.475 18.1717 193.646 17.9389 194.738 17.4865C195.83 17.0341 196.823 16.371 197.659 15.5351C198.495 14.6991 199.158 13.7068 199.611 12.6146C200.063 11.5224 200.296 10.3518 200.296 9.16962V7.28305H216.057C218.954 7.28833 221.73 8.44248 223.776 10.4922C225.822 12.5418 226.972 15.3196 226.972 18.2156Z" fill="white"/>
<path d="M115.448 68.4499C117.273 64.9263 116.183 60.3915 113.577 57.3995C110.97 54.4076 107.159 52.7396 103.27 51.8378C98.0569 50.6181 92.4682 50.6286 87.4791 52.5467C83.5014 54.074 80.0763 56.7167 76.4061 58.8746C69.9201 62.6922 62.6608 65.0077 55.162 65.6508C46.8208 66.3545 37.5046 65.2599 31.0558 70.5714C19.2425 80.2978 27.4691 102.216 16.4586 112.829C13.4871 115.69 9.51974 117.238 6.11547 119.568C2.7112 121.898 -0.333349 125.625 0.214045 129.712C0.474709 131.677 1.54865 133.449 2.78941 134.997C8.11738 141.654 17.0634 145.141 25.5245 144.103C33.9857 143.066 41.7326 137.635 45.8563 130.16C46.899 128.289 47.7435 126.24 49.3857 124.88C52.6753 122.164 57.5028 123.264 61.7672 123.134C71.2502 122.842 79.8625 114.716 80.6914 105.26C81.0459 101.221 80.3578 96.5189 83.2616 93.6834C85.6023 91.3899 89.2621 91.4107 92.463 90.7071C98.3436 89.4196 102.624 85.1662 105.309 79.9746C106.539 77.5873 106.414 74.9186 108.238 72.9378C110.183 70.759 113.712 71.7963 115.448 68.4499Z" fill="#6927FF"/>
<path opacity="0.1" d="M47.389 67.3032C50.8477 67.0083 54.2667 66.3568 57.5914 65.3589C56.653 65.4892 55.7146 65.5987 54.771 65.6769C48.2336 66.2242 41.0809 65.6769 35.1899 67.9756C39.2042 67.5638 43.4113 67.6368 47.389 67.3032Z" fill="black"/>
<path opacity="0.1" d="M41.571 126.532C39.9288 127.887 39.0634 129.941 38.0416 131.812C34.8822 137.507 29.8228 141.91 23.7468 144.255C24.2107 144.223 24.6747 144.182 25.1387 144.124C33.5999 143.082 41.3468 137.661 45.4705 130.186C46.5132 128.315 47.3525 126.261 48.9999 124.906L49.2814 124.687C46.4193 124.619 43.6771 124.791 41.571 126.532Z" fill="black"/>
<path opacity="0.1" d="M84.6483 92.3542C81.4474 93.0527 77.7876 93.037 75.4469 95.3253C72.5431 98.1661 73.2312 102.868 72.8767 106.907C72.2563 113.97 67.2881 120.293 60.8601 123.165H61.3345C70.8175 122.873 79.4246 114.742 80.2535 105.291C80.6132 101.247 79.9251 96.545 82.8289 93.7094C83.4943 93.0747 84.277 92.5754 85.1331 92.2395L84.6483 92.3542Z" fill="black"/>
<path d="M71.4274 106.907C69.4777 109.873 68.8208 113.48 68.2265 116.983L64.4416 138.927C63.9203 141.93 63.4563 145.229 64.9943 147.862C65.5156 148.753 66.2454 149.524 66.626 150.468C66.9135 151.417 67.1022 152.393 67.189 153.381C68.0753 158.411 73.0227 161.805 77.9858 163.025C79.7791 163.468 81.8749 163.64 83.2877 162.446C84.8516 161.148 84.8516 158.677 83.9289 156.895C83.0061 155.112 81.3222 153.851 79.6905 152.657L74.2843 148.675L77.4123 124.697C77.6417 122.956 78.4549 120.699 80.217 120.892C81.8227 121.064 83.0583 123.405 84.4867 122.649C84.9344 122.346 85.2495 121.884 85.3678 121.356C85.9934 119.391 85.8213 117.275 85.6441 115.216L84.9976 107.783C84.7839 105.37 85.4042 103.561 85.6962 101.294C86.035 98.6508 84.273 99.4535 82.099 100.022C77.9232 101.127 73.8412 103.227 71.4274 106.907Z" fill="#FBBEBE"/>
<path d="M115.605 115.888C115.172 116.655 114.281 117.009 113.452 117.317C104.871 120.475 95.8412 123.691 86.791 122.362C86.4521 120.939 86.1185 119.511 85.7848 118.088C85.3017 116.024 84.8152 113.96 84.3251 111.896C84.0957 110.91 83.8611 109.915 83.6735 108.914C83.3501 107.334 83.2466 105.717 83.3659 104.108C83.4211 103.525 83.5257 102.948 83.6787 102.383C83.9465 101.355 84.3948 100.382 85.0028 99.5109C85.1071 99.3701 85.2166 99.2294 85.3313 99.0939C85.8468 98.4723 86.4724 97.9511 87.1768 97.5562C88.7147 96.7118 90.8261 96.3521 91.4464 94.7154C91.6864 93.8596 91.6628 92.9514 91.3787 92.1092C90.8574 90.0242 89.9137 88.0643 89.3299 86.0002C88.5896 83.394 89.7052 83.5556 92.2232 82.9249C96.7588 81.7833 101.503 80.965 106.158 81.8824C105.939 84.1811 105.726 86.5371 106.304 88.7784C106.883 91.0198 108.431 93.1465 110.657 93.7667C110.986 93.8606 111.335 93.9179 111.7 93.9961C112.183 94.0738 112.642 94.2629 113.04 94.5486C113.314 94.7751 113.532 95.0625 113.676 95.3878C113.902 95.9379 114.052 96.5168 114.119 97.1079C114.936 102.578 115.525 108.073 115.886 113.595V113.803C115.993 114.511 115.896 115.234 115.605 115.888V115.888Z" fill="#FBBEBE"/>
<path d="M138.653 142.946C138.255 143.614 137.667 144.148 136.964 144.479C132.743 146.858 127.779 147.556 123.065 146.433C121.979 146.114 120.875 145.857 119.76 145.662C117.977 145.443 116.163 145.797 114.364 145.662C110.715 145.386 107.509 143.108 104.98 140.449C103.458 138.886 102.076 136.326 103.494 134.648C103.89 134.243 104.382 133.945 104.925 133.781C105.467 133.617 106.042 133.592 106.596 133.71C107.7 133.956 108.765 134.352 109.761 134.888C113.25 136.505 116.983 137.534 120.808 137.932C123.414 138.203 126.73 137.76 127.632 135.284C128.07 134.08 127.762 132.745 127.455 131.5C126.613 128.087 125.772 124.673 124.931 121.257C124.873 120.959 124.768 120.672 124.619 120.408C124.576 120.336 124.525 120.27 124.467 120.209C124.135 119.933 123.733 119.752 123.305 119.688C121.36 119.209 119.416 118.432 118.024 116.999C117.111 115.981 116.384 114.811 115.876 113.543C115.73 113.225 115.594 112.902 115.454 112.578C114.385 110.087 113.259 107.533 112.388 104.916C111.78 103.148 111.332 101.328 111.048 99.4796C110.819 97.8794 110.694 97.1444 111.57 96.4355C111.804 96.2584 112.054 96.1015 112.315 95.9664C112.717 95.7527 113.17 95.539 113.65 95.3357L114.114 95.1428C115.54 94.5726 117.005 94.1058 118.498 93.7459C122.116 92.9067 125.979 94.6581 128.461 97.4259C130.942 100.194 132.23 103.816 133.054 107.439C133.877 111.062 134.3 114.773 135.332 118.338C135.733 119.735 136.234 121.111 136.578 122.508C136.947 124.17 137.21 125.853 137.365 127.549C137.855 131.868 138.343 136.187 138.83 140.507C139.01 141.32 138.948 142.168 138.653 142.946Z" fill="#FBBEBE"/>
<path d="M85.1228 141.07C86.1654 147.721 83.1678 154.262 80.2692 160.356C81.9114 161.555 83.9185 162.149 85.8787 162.665C98.9983 166.113 112.637 167.139 126.125 165.693C126.448 163.442 126.751 161.054 125.828 158.98C125.255 157.692 124.264 156.644 123.633 155.383C122.591 153.298 122.695 150.874 122.81 148.56L123.743 128.841C117.273 125.86 109.771 128.654 102.655 129.055C98.9692 129.264 95.2365 128.815 91.6029 129.467C89.7157 129.806 83.7829 130.739 82.8915 132.683C82 134.627 84.8047 138.953 85.1228 141.07Z" fill="#FBBEBE"/>
<path d="M87.9952 236.15C87.2331 236.818 86.6461 237.663 86.2852 238.61C85.3937 241.394 87.8857 244.125 88.1255 247.039C88.3132 249.353 87.0828 251.511 86.3843 253.731C85.5959 256.49 85.6469 259.42 86.5308 262.15C87.4147 264.879 89.0914 267.283 91.3473 269.056C91.8276 269.464 92.3946 269.756 93.0051 269.911C93.5089 269.972 94.0197 269.929 94.5064 269.785C94.9932 269.642 95.4455 269.401 95.8359 269.077C97.0465 268.196 97.9698 266.978 98.4895 265.574C98.922 264.195 99.1554 262.761 99.1828 261.316L99.553 255.738C99.9388 249.916 100.288 243.911 98.87 238.193C98.4061 236.317 97.5459 232.006 95.3771 231.745C93.2084 231.485 89.434 234.743 87.9952 236.15Z" fill="#6927FF"/>
<path opacity="0.05" d="M85.1228 141.07C86.1654 147.721 83.1678 154.262 80.2692 160.356C81.9114 161.555 83.9185 162.149 85.8787 162.665C98.9983 166.113 112.637 167.139 126.125 165.693C126.448 163.442 126.751 161.054 125.828 158.98C125.255 157.692 124.264 156.644 123.633 155.383C122.591 153.298 122.695 150.874 122.81 148.56L123.743 128.841C117.273 125.86 109.771 128.654 102.655 129.055C98.9692 129.264 95.2365 128.815 91.6029 129.467C89.7157 129.806 83.7829 130.739 82.8915 132.683C82 134.627 84.8047 138.953 85.1228 141.07Z" fill="black"/>
<path opacity="0.05" d="M124.363 212.193C121.759 221.337 119.871 230.669 118.717 240.106C118.55 241.435 118.378 242.832 117.575 243.906C115.975 246.059 112.769 245.923 110.11 245.574C109.472 245.541 108.85 245.362 108.29 245.053C107.29 244.375 107.071 243.02 106.951 241.816C105.129 224.066 103.913 206.269 103.301 188.425C103.275 187.742 125.557 187.679 127.465 189.467C129.373 191.255 127.892 197.943 127.465 200.221C126.766 204.276 125.505 208.227 124.363 212.193Z" fill="black"/>
<path d="M78.5616 190.181L86.9891 205.73C89.9919 212.329 93.0156 219.001 94.4493 226.106C95.0244 229.073 95.392 232.078 95.5493 235.097C95.7671 237.685 95.6866 240.289 95.3095 242.858C94.981 244.766 94.3763 246.622 94.1104 248.54C93.0678 256.187 97.4 263.38 100.366 270.495C102.929 276.605 104.56 283.066 105.204 289.661C105.475 292.47 105.627 295.452 107.232 297.771C110.167 296.891 113.035 296.13 116.095 296.474C116.642 291.986 113.806 287.852 112.764 283.442C110.85 275.363 115.078 266.872 113.639 258.694C112.857 254.263 110.433 250.093 110.631 245.6C111.001 237.406 112.539 229.129 110.975 221.102C109.213 212.027 104.513 201.315 103.392 192.141C102.532 185.094 102.085 179.072 96.8577 177.765C83.789 174.498 77.2547 184.953 78.5616 190.181Z" fill="#FBBEBE"/>
<path d="M102.264 160.158C95.252 158.698 88.3601 156.285 81.2023 156.118C80.8429 156.081 80.4806 156.15 80.1596 156.316C79.8103 156.605 79.577 157.01 79.5027 157.458C78.7625 160.012 78.1004 162.585 77.5165 165.177C75.5772 173.793 74.6231 183.311 78.8876 191.047C78.8459 188.534 80.4255 186.183 82.5369 184.792C84.6482 183.4 87.1767 182.837 89.6791 182.608C92.1814 182.378 94.8558 182.472 97.1862 183.499C98.8147 184.239 100.22 185.394 101.26 186.849C102.301 188.304 102.94 190.007 103.114 191.787L127.746 192.584C127.891 192.626 128.043 192.632 128.19 192.6C128.337 192.569 128.473 192.501 128.587 192.403C128.701 192.305 128.789 192.18 128.842 192.04C128.896 191.899 128.913 191.748 128.893 191.599C129.801 183.699 129.768 175.718 128.794 167.825C128.523 165.62 128.487 162.561 126.005 161.732C123.044 160.741 118.363 161.899 115.198 161.763C110.85 161.58 106.524 161.044 102.264 160.158V160.158Z" fill="#6927FF"/>
<path d="M124.624 121.544L124.545 132.49L99.626 133.319C95.054 133.475 90.4455 133.632 85.9881 134.648C84.7056 134.94 83.4388 135.305 82.1772 135.664C80.8634 130.853 79.5705 125.813 79.9146 120.908C80.0097 119.585 80.2403 118.275 80.6028 116.999C81.3952 114.246 82.881 111.651 83.6734 108.93C83.9927 107.87 84.1681 106.773 84.1947 105.667C84.1356 104.562 83.9608 103.467 83.6734 102.399C83.4448 101.522 83.336 100.619 83.3502 99.7142L85.326 99.1043C85.3833 99.3389 85.4303 99.5682 85.472 99.808C85.5554 100.303 85.6232 100.809 85.6701 101.314C85.7817 102.567 85.8165 103.826 85.7744 105.083C85.7066 107.595 85.3677 110.394 86.9369 112.38C88.9753 114.929 92.8957 114.533 96.0966 113.897L104.48 112.224C107.128 111.703 110.084 110.963 111.465 108.643C112.055 107.517 112.366 106.266 112.372 104.994V104.744C112.497 101.976 112.222 99.2035 111.554 96.5137C111.351 95.6693 111.1 94.8353 110.819 94.017H111.658C112.142 94.0946 112.6 94.2838 112.998 94.5695C113.272 94.796 113.49 95.0833 113.634 95.4087L114.098 95.2158C115.948 102.776 118.996 109.991 123.127 116.587C123.659 117.342 124.08 118.168 124.379 119.042C124.503 119.516 124.573 120.002 124.587 120.491C124.629 120.799 124.624 121.169 124.624 121.544Z" fill="#FF8983"/>
<path d="M98.2966 88.4136C106.646 88.4136 113.415 81.6459 113.415 73.2975C113.415 64.9491 106.646 58.1814 98.2966 58.1814C89.9469 58.1814 83.1781 64.9491 83.1781 73.2975C83.1781 81.6459 89.9469 88.4136 98.2966 88.4136Z" fill="#FBBEBE"/>
<path d="M71.4274 106.907C69.4777 109.873 68.8208 113.48 68.2265 116.983L64.4416 138.927C63.9203 141.93 63.4563 145.229 64.9943 147.862C65.5156 148.753 66.2454 149.524 66.626 150.468C66.9135 151.417 67.1022 152.393 67.189 153.382C68.0753 158.412 73.0227 161.805 77.9857 163.025C79.7791 163.468 81.8748 163.64 83.2876 162.446C84.8516 161.148 84.8516 158.677 83.9289 156.895C83.0061 155.112 81.3222 153.851 79.6905 152.657L74.2843 148.675L77.4123 124.697C77.6208 122.972 73.8412 103.227 71.4274 106.907Z" fill="#FBBEBE"/>
<path d="M133.059 107.47C133.882 111.093 134.305 114.804 135.337 118.37C135.738 119.772 136.239 121.143 136.583 122.539C136.952 124.199 137.215 125.881 137.37 127.575L138.835 140.533C139.004 141.333 138.941 142.165 138.653 142.931C138.254 143.597 137.666 144.131 136.964 144.463C132.741 146.836 127.779 147.534 123.065 146.418C121.98 146.094 120.876 145.836 119.76 145.646C117.977 145.422 116.163 145.782 114.364 145.646C110.715 145.37 107.509 143.097 104.98 140.46C103.458 138.896 102.076 136.332 103.494 134.653C103.89 134.248 104.382 133.95 104.925 133.786C105.467 133.622 106.042 133.597 106.596 133.715C107.7 133.963 108.765 134.361 109.761 134.898C113.251 136.511 116.983 137.538 120.808 137.937C123.414 138.213 126.73 137.77 127.632 135.289C128.07 134.085 127.762 132.751 127.455 131.505L124.931 121.262C124.827 120.908 132.235 103.853 133.059 107.47Z" fill="#FBBEBE"/>
<path d="M88.9388 77.9522C88.2663 75.5388 87.3227 72.5208 89.2152 70.8841C89.8953 70.3592 90.7147 70.0456 91.5716 69.9824C95.8204 69.4611 100.215 71.9631 104.282 70.6287C105.579 70.205 106.725 69.4149 107.583 68.354C108.441 67.293 108.973 66.0065 109.116 64.6497C109.259 63.2929 109.006 61.9237 108.388 60.7075C107.769 59.4913 106.812 58.48 105.632 57.7957C103.854 56.7532 101.732 56.5499 99.6834 56.3675C94.2877 55.8723 88.6625 55.4136 83.6161 57.4099C78.5696 59.4063 74.3156 64.5458 75.3583 69.8677C75.8431 72.4062 77.4123 74.5902 79.0076 76.6126C80.2327 78.1503 85.1488 85.4738 87.1246 85.3695C89.9085 85.2131 89.3768 79.5211 88.9388 77.9522Z" fill="#6927FF"/>
<path opacity="0.1" d="M105.632 57.7957C105.33 57.6216 105.017 57.47 104.693 57.3422C105.609 58.1727 106.29 59.229 106.669 60.4054C107.048 61.5818 107.111 62.8371 106.853 64.0456C106.594 65.2542 106.022 66.3737 105.195 67.292C104.368 68.2104 103.314 68.8955 102.139 69.2787C98.0724 70.6131 93.6776 68.1111 89.4288 68.6323C88.5719 68.6956 87.7525 69.0092 87.0724 69.5341C85.18 71.1708 86.1236 74.1888 86.7961 76.6022C87.234 78.1659 87.7658 83.8631 84.9923 84.0195H84.9454C85.8056 84.8587 86.5824 85.406 87.135 85.3747C89.9084 85.2183 89.3767 79.5264 88.9388 77.9574C88.2662 75.5441 87.3226 72.526 89.2151 70.8893C89.8952 70.3644 90.7146 70.0508 91.5715 69.9876C95.8203 69.4663 100.215 71.9683 104.281 70.6339C105.578 70.2102 106.725 69.4201 107.583 68.3592C108.441 67.2983 108.973 66.0117 109.116 64.6549C109.259 63.2981 109.006 61.929 108.388 60.7127C107.769 59.4965 106.812 58.4852 105.632 57.8009V57.7957Z" fill="#6927FF"/>
<path d="M124.363 212.193C121.759 221.337 119.871 230.669 118.717 240.106C118.55 241.435 118.378 242.832 117.575 243.906C115.975 246.059 112.769 245.923 110.11 245.574C109.472 245.541 108.85 245.362 108.29 245.053C107.29 244.375 107.071 243.02 106.951 241.816C105.129 224.066 103.913 206.269 103.301 188.425C103.275 187.742 125.557 187.679 127.465 189.467C129.373 191.255 127.892 197.943 127.465 200.221C126.766 204.276 125.505 208.227 124.363 212.193Z" fill="#FBBEBE"/>
<path d="M107.623 310.505C106.721 310.537 105.668 310.505 105.11 309.791C104.838 309.376 104.682 308.896 104.657 308.4C104.23 305.257 104.021 302.089 104.031 298.918C104.031 297.761 104.083 296.531 104.73 295.577C105.204 294.995 105.745 294.47 106.341 294.013C107.722 292.736 108.728 290.886 110.511 290.297C111.293 290.07 112.121 290.059 112.908 290.265C113.694 290.472 114.41 290.888 114.979 291.47C116.104 292.669 116.801 294.206 116.96 295.843C117.221 297.782 117.002 299.893 118.029 301.577C118.436 302.228 119.004 302.76 119.463 303.375C121.027 305.46 122.429 309.541 119.202 310.386C115.782 311.277 111.174 310.391 107.623 310.505Z" fill="#6927FF"/>
<path d="M144.407 65.565C147.424 65.565 149.766 66.1635 151.433 67.3604C153.121 68.5375 153.964 70.2731 153.964 72.5673C153.964 74.9412 153.163 76.7566 151.559 78.0135C149.977 79.2703 147.836 79.8987 145.135 79.8987H142.983V86.3922H136.464V65.565H144.407ZM144.502 75.5597C146.38 75.5597 147.319 74.5622 147.319 72.5673C147.319 70.7519 146.316 69.8442 144.312 69.8442H142.983V75.5597H144.502Z" fill="#6927FF"/>
<path d="M165.476 86.3922L164.622 82.3525H159.4L158.577 86.3922H151.773L158.197 65.565H165.982L172.375 86.3922H165.476ZM160.318 78.0434H163.704L161.995 69.8741L160.318 78.0434Z" fill="#6927FF"/>
<path d="M181.033 64.9665C184.388 64.9665 187.099 65.9141 189.166 67.8093L186.286 71.0112C184.81 69.894 183.238 69.3354 181.571 69.3354C180.791 69.3354 180.2 69.4651 179.799 69.7245C179.398 69.9838 179.198 70.3529 179.198 70.8316C179.198 71.1907 179.303 71.49 179.514 71.7294C179.746 71.9488 180.115 72.1583 180.622 72.3578C181.149 72.5573 181.993 72.8366 183.153 73.1957C185.474 73.8939 187.141 74.7717 188.154 75.829C189.187 76.8863 189.704 78.3327 189.704 80.168C189.704 81.5046 189.325 82.6916 188.565 83.729C187.827 84.7464 186.761 85.5444 185.369 86.1229C183.976 86.7015 182.331 86.9907 180.432 86.9907C178.491 86.9907 176.782 86.7015 175.305 86.1229C173.828 85.5444 172.583 84.7863 171.571 83.8487L174.767 80.5271C176.434 81.8837 178.238 82.5619 180.179 82.5619C181.086 82.5619 181.772 82.3924 182.236 82.0532C182.7 81.6941 182.932 81.2353 182.932 80.6767C182.932 80.2578 182.826 79.9087 182.615 79.6294C182.426 79.3501 182.077 79.0907 181.571 78.8513C181.065 78.6119 180.326 78.3526 179.356 78.0733C176.803 77.3152 175.02 76.4075 174.008 75.3502C172.995 74.2729 172.489 72.9363 172.489 71.3404C172.489 70.0436 172.858 68.9165 173.596 67.9589C174.335 67.0014 175.347 66.2632 176.634 65.7445C177.942 65.2258 179.409 64.9665 181.033 64.9665Z" fill="#6927FF"/>
<path d="M199.329 64.9665C202.683 64.9665 205.394 65.9141 207.462 67.8093L204.582 71.0112C203.105 69.894 201.534 69.3354 199.867 69.3354C199.086 69.3354 198.495 69.4651 198.095 69.7245C197.694 69.9838 197.493 70.3529 197.493 70.8316C197.493 71.1907 197.599 71.49 197.81 71.7294C198.042 71.9488 198.411 72.1583 198.917 72.3578C199.445 72.5573 200.289 72.8366 201.449 73.1957C203.77 73.8939 205.437 74.7717 206.449 75.829C207.483 76.8863 208 78.3327 208 80.168C208 81.5046 207.62 82.6916 206.861 83.729C206.122 84.7464 205.057 85.5444 203.664 86.1229C202.272 86.7015 200.626 86.9907 198.728 86.9907C196.787 86.9907 195.078 86.7015 193.601 86.1229C192.124 85.5444 190.879 84.7863 189.866 83.8487L193.063 80.5271C194.73 81.8837 196.533 82.5619 198.474 82.5619C199.382 82.5619 200.067 82.3924 200.531 82.0532C200.996 81.6941 201.228 81.2353 201.228 80.6767C201.228 80.2578 201.122 79.9087 200.911 79.6294C200.721 79.3501 200.373 79.0907 199.867 78.8513C199.36 78.6119 198.622 78.3526 197.652 78.0733C195.099 77.3152 193.316 76.4075 192.303 75.3502C191.291 74.2729 190.784 72.9363 190.784 71.3404C190.784 70.0436 191.153 68.9165 191.892 67.9589C192.63 67.0014 193.643 66.2632 194.93 65.7445C196.238 65.2258 197.704 64.9665 199.329 64.9665Z" fill="#6927FF"/>
<path d="M127.18 78.9579C128.343 78.9579 129.33 79.3591 130.142 80.1616C130.954 80.9382 131.359 81.8701 131.359 82.9574C131.359 84.0446 130.954 84.9895 130.142 85.792C129.33 86.5686 128.343 86.9568 127.18 86.9568C126.016 86.9568 125.029 86.5686 124.217 85.792C123.406 84.9895 123 84.0446 123 82.9574C123 81.8701 123.406 80.9382 124.217 80.1616C125.029 79.3591 126.016 78.9579 127.18 78.9579ZM127.18 66.0664C128.343 66.0664 129.33 66.4676 130.142 67.2701C130.954 68.0467 131.359 68.9786 131.359 70.0658C131.359 71.1531 130.954 72.0979 130.142 72.9004C129.33 73.677 128.343 74.0653 127.18 74.0653C126.016 74.0653 125.029 73.677 124.217 72.9004C123.406 72.0979 123 71.1531 123 70.0658C123 68.9786 123.406 68.0467 124.217 67.2701C125.029 66.4676 126.016 66.0664 127.18 66.0664Z" fill="#6927FF"/>
<path d="M123 56.7387V37.7212H132.872L132.67 39.1093H124.732V46.522H131.573V47.9102H124.732V56.7387H123Z" fill="#837DFF"/>
<path d="M137.412 42.2188V56.7387H135.738V42.2188H137.412ZM136.546 35.8333C136.931 35.8333 137.239 35.9444 137.469 36.1665C137.7 36.3886 137.816 36.6662 137.816 36.9994C137.816 37.3325 137.7 37.6101 137.469 37.8322C137.239 38.0543 136.931 38.1654 136.546 38.1654C136.18 38.1654 135.882 38.0543 135.651 37.8322C135.42 37.6101 135.305 37.3325 135.305 36.9994C135.305 36.6662 135.42 36.3886 135.651 36.1665C135.882 35.9444 136.18 35.8333 136.546 35.8333Z" fill="#837DFF"/>
<path d="M150.387 56.128C149.425 56.7387 148.367 57.0441 147.212 57.0441C146.058 57.0441 145.153 56.7202 144.499 56.0724C143.845 55.4061 143.517 54.4529 143.517 53.2129V43.5236H140.977V42.2188H143.517V38.7484L145.192 38.5541V42.2188L149.088 42.2188L148.886 43.5236L145.192 43.5236V53.1296C145.192 53.981 145.374 54.6195 145.74 55.0452C146.106 55.4524 146.664 55.656 147.414 55.656C148.184 55.656 148.954 55.4431 149.723 55.0174L150.387 56.128Z" fill="#837DFF"/>
<path d="M160.023 41.9134C161.389 41.9134 162.428 42.3021 163.14 43.0794C163.871 43.8568 164.237 44.9488 164.237 46.3554V56.7387H162.563V46.5775C162.563 45.4115 162.322 44.5601 161.841 44.0234C161.36 43.4866 160.648 43.2182 159.705 43.2182C158.743 43.2182 157.887 43.4774 157.136 43.9956C156.405 44.4953 155.703 45.2357 155.029 46.2166V56.7387H153.355V42.2188H154.798L154.971 44.6897C155.587 43.8198 156.318 43.1442 157.165 42.663C158.012 42.1632 158.964 41.9134 160.023 41.9134Z" fill="#837DFF"/>
<path d="M180.92 48.9374C180.92 49.3446 180.901 49.7333 180.862 50.1034H170.789C170.885 51.9913 171.347 53.3979 172.174 54.3234C173.021 55.2303 174.127 55.6838 175.494 55.6838C176.283 55.6838 176.975 55.5727 177.572 55.3506C178.188 55.11 178.852 54.7398 179.564 54.2401L180.343 55.2673C179.592 55.8596 178.823 56.3038 178.034 56.5999C177.245 56.8961 176.369 57.0441 175.407 57.0441C173.406 57.0441 171.837 56.3871 170.702 55.073C169.567 53.7589 168.999 51.9358 168.999 49.6037C168.999 48.0675 169.24 46.7256 169.721 45.5781C170.221 44.412 170.923 43.5144 171.828 42.8851C172.752 42.2373 173.82 41.9134 175.032 41.9134C176.956 41.9134 178.419 42.5427 179.419 43.8013C180.42 45.0413 180.92 46.7534 180.92 48.9374ZM179.275 48.4377C179.275 46.8089 178.919 45.5411 178.207 44.6341C177.514 43.7087 176.475 43.246 175.09 43.246C173.839 43.246 172.829 43.7087 172.059 44.6341C171.289 45.5596 170.866 46.9662 170.789 48.8541H179.275V48.4377Z" fill="#837DFF"/>
<path d="M189.381 41.9134C190.324 41.9134 191.181 42.0522 191.95 42.3298C192.72 42.5889 193.47 42.9869 194.202 43.5236L193.422 44.5786C192.73 44.1159 192.075 43.7827 191.46 43.5792C190.844 43.357 190.17 43.246 189.439 43.246C188.438 43.246 187.63 43.4681 187.014 43.9123C186.399 44.3565 186.091 44.9488 186.091 45.6891C186.091 46.3925 186.351 46.9385 186.87 47.3271C187.409 47.7158 188.371 48.086 189.757 48.4377C191.469 48.8633 192.701 49.4001 193.451 50.0479C194.221 50.6957 194.606 51.6211 194.606 52.8242C194.606 54.1198 194.086 55.147 193.047 55.9059C192.008 56.6647 190.709 57.0441 189.15 57.0441C187.996 57.0441 186.986 56.8868 186.12 56.5722C185.254 56.239 184.465 55.7763 183.753 55.184L184.676 54.1568C185.35 54.675 186.033 55.0637 186.726 55.3228C187.438 55.5635 188.236 55.6838 189.122 55.6838C190.238 55.6838 191.132 55.4431 191.806 54.9619C192.499 54.4622 192.845 53.7774 192.845 52.9075C192.845 52.3152 192.73 51.834 192.499 51.4638C192.268 51.0936 191.873 50.779 191.315 50.5199C190.757 50.2422 189.939 49.9646 188.862 49.687C187.265 49.2798 186.11 48.7708 185.398 48.16C184.705 47.5492 184.359 46.7349 184.359 45.7169C184.359 44.9951 184.58 44.3473 185.023 43.7735C185.465 43.1812 186.062 42.7278 186.812 42.4131C187.582 42.08 188.438 41.9134 189.381 41.9134Z" fill="#837DFF"/>
<path d="M202.404 41.9134C203.347 41.9134 204.203 42.0522 204.973 42.3298C205.743 42.5889 206.493 42.9869 207.225 43.5236L206.445 44.5786C205.752 44.1159 205.098 43.7827 204.482 43.5792C203.867 43.357 203.193 43.246 202.462 43.246C201.461 43.246 200.653 43.4681 200.037 43.9123C199.422 44.3565 199.114 44.9488 199.114 45.6891C199.114 46.3925 199.373 46.9385 199.893 47.3271C200.432 47.7158 201.394 48.086 202.779 48.4377C204.492 48.8633 205.724 49.4001 206.474 50.0479C207.244 50.6957 207.629 51.6211 207.629 52.8242C207.629 54.1198 207.109 55.147 206.07 55.9059C205.031 56.6647 203.732 57.0441 202.173 57.0441C201.019 57.0441 200.008 56.8868 199.142 56.5722C198.277 56.239 197.488 55.7763 196.776 55.184L197.699 54.1568C198.373 54.675 199.056 55.0637 199.749 55.3228C200.461 55.5635 201.259 55.6838 202.144 55.6838C203.26 55.6838 204.155 55.4431 204.829 54.9619C205.522 54.4622 205.868 53.7774 205.868 52.9075C205.868 52.3152 205.752 51.834 205.522 51.4638C205.291 51.0936 204.896 50.779 204.338 50.5199C203.78 50.2422 202.962 49.9646 201.885 49.687C200.287 49.2798 199.133 48.7708 198.421 48.16C197.728 47.5492 197.382 46.7349 197.382 45.7169C197.382 44.9951 197.603 44.3473 198.046 43.7735C198.488 43.1812 199.085 42.7278 199.835 42.4131C200.605 42.08 201.461 41.9134 202.404 41.9134Z" fill="#837DFF"/>
<circle cx="151.64" cy="172.04" r="2.56" transform="rotate(-90 151.64 172.04)" fill="white"/>
<circle cx="161.88" cy="172.04" r="2.56" transform="rotate(-90 161.88 172.04)" fill="white"/>
<circle cx="172.12" cy="172.04" r="2.56" transform="rotate(-90 172.12 172.04)" fill="white"/>
<circle cx="182.36" cy="172.04" r="2.56" transform="rotate(-90 182.36 172.04)" fill="white"/>
</svg>
