<svg width="279" height="339" viewBox="0 0 279 339" fill="none" xmlns="http://www.w3.org/2000/svg">
<path opacity="0.1" d="M142.168 338.528C217.35 338.528 278.298 332.589 278.298 325.264C278.298 317.938 217.35 312 142.168 312C66.985 312 6.03746 317.938 6.03746 325.264C6.03746 332.589 66.985 338.528 142.168 338.528Z" fill="#837DFF"/>
<path d="M211.419 64.1043H209.134C208.629 64.1043 208.22 64.5132 208.22 65.0177V97.1014C208.22 97.6058 208.629 98.0147 209.134 98.0147H211.419C211.924 98.0147 212.333 97.6058 212.333 97.1014V65.0177C212.333 64.5132 211.924 64.1043 211.419 64.1043Z" fill="#3F3D56"/>
<path d="M73.175 37.5368H72.0621C71.7316 37.5368 71.4637 37.8046 71.4637 38.135V48.1024C71.4637 48.4328 71.7316 48.7006 72.0621 48.7006H73.175C73.5055 48.7006 73.7734 48.4328 73.7734 48.1024V38.135C73.7734 37.8046 73.5055 37.5368 73.175 37.5368Z" fill="#3F3D56"/>
<path d="M73.3067 57.9779H72.0541C71.6818 57.9779 71.3799 58.2797 71.3799 58.652V76.736C71.3799 77.1082 71.6818 77.41 72.0541 77.41H73.3067C73.679 77.41 73.9809 77.1082 73.9809 76.736V58.652C73.9809 58.2797 73.679 57.9779 73.3067 57.9779Z" fill="#3F3D56"/>
<path d="M73.2548 84.2065H72.0621C71.7074 84.2065 71.4198 84.494 71.4198 84.8486V103.164C71.4198 103.519 71.7074 103.806 72.0621 103.806H73.2548C73.6095 103.806 73.8971 103.519 73.8971 103.164V84.8486C73.8971 84.494 73.6095 84.2065 73.2548 84.2065Z" fill="#3F3D56"/>
<path d="M196.201 0.646881H87.0094C79.1464 0.646881 72.7721 7.02013 72.7721 14.8819V266.155C72.7721 274.017 79.1464 280.39 87.0094 280.39H196.201C204.064 280.39 210.438 274.017 210.438 266.155V14.8819C210.438 7.02013 204.064 0.646881 196.201 0.646881Z" fill="#35302A"/>
<path d="M201.937 18.8625V262.162C201.936 265.061 200.784 267.841 198.733 269.89C196.683 271.94 193.902 273.091 191.003 273.091H92.2074C89.3081 273.091 86.5276 271.94 84.4771 269.89C82.4266 267.841 81.2742 265.061 81.2731 262.162V18.8625C81.2731 17.4268 81.5559 16.0052 82.1054 14.6788C82.6549 13.3524 83.4603 12.1472 84.4757 11.132C85.491 10.1168 86.6964 9.31153 88.023 8.76212C89.3496 8.21271 90.7715 7.92993 92.2074 7.92993H106.991V9.82847C106.995 12.2136 107.946 14.4996 109.634 16.185C111.322 17.8704 113.609 18.8176 115.995 18.8186H166.258C167.441 18.8186 168.611 18.5858 169.704 18.1334C170.796 17.681 171.789 17.0179 172.625 16.182C173.461 15.346 174.124 14.3536 174.576 13.2615C175.029 12.1693 175.262 10.9987 175.262 9.81651V7.92993H191.023C193.919 7.93521 196.695 9.08937 198.742 11.139C200.788 13.1887 201.937 15.9664 201.937 18.8625Z" fill="white"/>
<path opacity="0.2" d="M202.803 190.124V260.867C202.803 267.491 197.435 272.862 190.811 272.867L93.2814 272.934C86.6507 272.938 81.2731 267.565 81.2731 260.934V171.865C82.047 170.982 82.8315 170.066 83.6267 169.117C100.573 148.883 123.606 143.558 141.434 143C153.648 142.601 165.807 145.126 177.416 150.139C183.547 152.788 192.347 155.691 201.937 155.979V187.257C202.524 188.928 202.803 190.124 202.803 190.124Z" fill="#6C63FF"/>
<path opacity="0.2" d="M202.803 190.387V261.121C202.803 267.749 197.43 273.121 190.803 273.121H93.2731C86.6457 273.121 81.2731 267.749 81.2731 261.121V218.925C85.6013 217.836 91.6449 213.648 99.3999 202.078C108.675 188.234 121.276 184.592 131.03 184.209C137.712 183.946 144.366 185.661 150.716 189.095C157.861 192.952 171.632 197.603 182.095 184.101C193.664 169.172 199.815 181.485 201.937 187.52C202.524 189.191 202.803 190.387 202.803 190.387Z" fill="#6C63FF"/>
<path d="M88.3452 178.652C88.0141 179.238 87.3319 179.51 86.6976 179.745C80.1315 182.162 73.2222 184.623 66.2971 183.606C66.0378 182.517 65.7825 181.424 65.5272 180.335C65.1575 178.756 64.7852 177.176 64.4102 175.597C64.2347 174.843 64.0552 174.081 63.9115 173.315C63.6641 172.106 63.5849 170.869 63.6762 169.638C63.7184 169.192 63.7985 168.75 63.9155 168.318C64.1204 167.531 64.4635 166.787 64.9288 166.12C65.0086 166.012 65.0923 165.905 65.1801 165.801C65.5745 165.325 66.0533 164.927 66.5923 164.624C67.7691 163.978 69.3847 163.703 69.8594 162.451C70.043 161.796 70.025 161.101 69.8075 160.456C69.4086 158.861 68.6866 157.361 68.2398 155.782C67.6733 153.788 68.527 153.911 70.4538 153.429C73.9243 152.555 77.5545 151.929 81.1168 152.631C80.9492 154.39 80.7857 156.193 81.2285 157.908C81.6713 159.623 82.8561 161.25 84.5594 161.725C84.8108 161.797 85.078 161.84 85.3573 161.9C85.7272 161.96 86.0782 162.104 86.3825 162.323C86.5924 162.496 86.7591 162.716 86.8692 162.965C87.0426 163.386 87.1567 163.829 87.2083 164.281C87.8332 168.467 88.284 172.672 88.5606 176.897V177.057C88.6426 177.598 88.5679 178.152 88.3452 178.652Z" fill="#FBBEBE"/>
<path d="M88.2255 142.353C89.6217 139.656 88.7879 136.186 86.7934 133.897C84.7988 131.607 81.8827 130.331 78.9068 129.641C74.9176 128.708 70.6413 128.716 66.8236 130.184C63.7799 131.352 61.159 133.374 58.3506 135.026C53.3876 137.947 47.8329 139.719 42.0948 140.211C35.7121 140.749 28.5835 139.912 23.6489 143.976C14.6095 151.418 20.9044 168.19 12.4793 176.311C10.2054 178.501 7.16968 179.685 4.56476 181.468C1.95983 183.251 -0.369833 186.103 0.049029 189.23C0.248487 190.733 1.07026 192.089 2.01968 193.274C6.0966 198.367 12.942 201.036 19.4164 200.242C25.8908 199.448 31.8187 195.292 34.9741 189.573C35.772 188.141 36.4182 186.573 37.6748 185.532C40.192 183.454 43.8859 184.296 47.1491 184.196C54.4054 183.973 60.9955 177.755 61.6297 170.52C61.901 167.428 61.3744 163.831 63.5964 161.661C65.3875 159.906 68.1879 159.922 70.6373 159.384C75.137 158.398 78.4121 155.144 80.4666 151.171C81.408 149.344 81.3123 147.302 82.7085 145.787C84.1964 144.119 86.8971 144.913 88.2255 142.353Z" fill="#6927FF"/>
<path opacity="0.1" d="M36.147 141.475C38.7936 141.249 41.4097 140.751 43.9538 139.987C43.2357 140.087 42.5177 140.171 41.7956 140.231C36.7932 140.649 31.3201 140.231 26.8123 141.99C29.884 141.675 33.1032 141.73 36.147 141.475Z" fill="black"/>
<path opacity="0.1" d="M31.695 186.797C30.4385 187.834 29.7762 189.405 28.9944 190.837C26.5769 195.194 22.7054 198.564 18.0561 200.358C18.4111 200.334 18.7662 200.302 19.1212 200.258C25.5956 199.46 31.5235 195.312 34.6789 189.593C35.4768 188.161 36.119 186.589 37.3796 185.552L37.595 185.385C35.405 185.333 33.3067 185.465 31.695 186.797Z" fill="black"/>
<path opacity="0.1" d="M86.4942 133.921C84.4996 131.631 81.5636 130.359 78.6076 129.665C74.6184 128.732 70.3421 128.744 66.5204 130.211L66.2651 130.315C68.5134 130.187 70.7684 130.387 72.9589 130.909C75.9149 131.603 78.8549 132.876 80.8455 135.169C82.8361 137.463 83.6738 140.929 82.2776 143.625C80.9492 146.186 78.2486 145.388 76.7287 147.043C75.3325 148.555 75.4282 150.601 74.4868 152.428C72.7196 155.846 70.0429 158.725 66.4686 160.094C67.7172 159.798 69.0575 159.667 70.3022 159.396C74.8019 158.406 78.077 155.156 80.1314 151.183C81.0769 149.356 80.9811 147.31 82.3734 145.799C83.8972 144.143 86.5979 144.937 87.9223 142.38C89.3185 139.692 88.4848 136.222 86.4942 133.921Z" fill="black"/>
<path opacity="0.1" d="M64.6575 160.644C62.2082 161.178 59.4078 161.166 57.6166 162.917C55.3947 165.091 55.9212 168.689 55.65 171.78C55.1753 177.184 51.3736 182.022 46.455 184.22H46.818C54.0743 183.997 60.6604 177.775 61.2946 170.543C61.5699 167.448 61.0433 163.851 63.2653 161.681C63.7745 161.195 64.3734 160.813 65.0285 160.556L64.6575 160.644Z" fill="black"/>
<path d="M54.541 171.78C53.049 174.049 52.5464 176.809 52.0916 179.49L49.1955 196.281C48.7966 198.579 48.4416 201.104 49.6184 203.118C50.0173 203.8 50.5758 204.39 50.867 205.112C51.087 205.838 51.2314 206.586 51.2978 207.342C51.976 211.19 55.7617 213.787 59.5594 214.72C60.9316 215.059 62.5353 215.191 63.6163 214.278C64.8131 213.284 64.8131 211.394 64.107 210.03C63.4009 208.666 62.1124 207.701 60.8638 206.787L56.7271 203.74L59.1206 185.393C59.2961 184.061 59.9184 182.334 61.2667 182.481C62.4954 182.613 63.4408 184.404 64.5338 183.825C64.8764 183.593 65.1175 183.24 65.208 182.836C65.6867 181.332 65.5551 179.713 65.4194 178.138L64.9248 172.45C64.7612 170.603 65.2359 169.219 65.4593 167.484C65.7186 165.462 64.3703 166.076 62.7068 166.511C59.5115 167.357 56.388 168.964 54.541 171.78Z" fill="#FBBEBE"/>
<path d="M105.981 199.357C105.677 199.868 105.227 200.276 104.689 200.529C101.459 202.35 97.6605 202.884 94.0536 202.025C93.2224 201.781 92.378 201.584 91.5245 201.435C90.1602 201.267 88.772 201.538 87.3957 201.435C84.6033 201.223 82.15 199.48 80.2152 197.446C79.0504 196.249 77.9933 194.291 79.0783 193.007C79.3814 192.697 79.7579 192.469 80.1729 192.343C80.5878 192.218 81.0278 192.199 81.4519 192.289C82.2965 192.477 83.1113 192.78 83.8733 193.19C86.5431 194.428 89.3994 195.215 92.3263 195.52C94.3209 195.727 96.858 195.388 97.5481 193.493C97.8832 192.572 97.6479 191.551 97.4125 190.598C96.7689 187.987 96.1253 185.374 95.4818 182.76C95.4375 182.532 95.3567 182.313 95.2424 182.11C95.2097 182.055 95.1709 182.005 95.1267 181.959C94.8723 181.747 94.5646 181.609 94.2371 181.56C92.7492 181.193 91.2612 180.599 90.1961 179.502C89.498 178.723 88.9418 177.828 88.5526 176.857C88.4409 176.614 88.3372 176.367 88.2295 176.119C87.4117 174.213 86.55 172.259 85.8838 170.256C85.4188 168.903 85.0756 167.511 84.8586 166.096C84.6831 164.872 84.5874 164.309 85.2575 163.767C85.4372 163.631 85.6281 163.511 85.828 163.408C86.1352 163.244 86.4822 163.081 86.8492 162.925L87.2042 162.778C88.2954 162.341 89.4166 161.984 90.5591 161.709C93.3276 161.067 96.2836 162.407 98.1824 164.525C100.081 166.643 101.067 169.415 101.697 172.187C102.327 174.959 102.65 177.799 103.44 180.527C103.747 181.596 104.13 182.649 104.394 183.718C104.676 184.989 104.877 186.277 104.996 187.574C105.371 190.88 105.745 194.185 106.117 197.49C106.254 198.112 106.207 198.761 105.981 199.357Z" fill="#FBBEBE"/>
<path d="M65.0205 197.921C65.8184 203.01 63.5246 208.016 61.3066 212.678C62.5632 213.596 64.099 214.05 65.599 214.445C75.638 217.084 86.0743 217.869 96.3953 216.762C96.6426 215.039 96.874 213.213 96.1679 211.625C95.7291 210.64 94.9712 209.838 94.4885 208.873C93.6907 207.278 93.7704 205.423 93.8582 203.652L94.5723 188.564C89.6217 186.282 83.8813 188.42 78.4361 188.727C75.6158 188.887 72.7595 188.544 69.9791 189.042C68.535 189.301 63.9953 190.015 63.3132 191.503C62.631 192.991 64.7772 196.301 65.0205 197.921Z" fill="#FBBEBE"/>
<path d="M67.2185 270.675C66.6354 271.187 66.1862 271.833 65.91 272.558C65.2279 274.688 67.1347 276.778 67.3182 279.007C67.4618 280.778 66.5204 282.43 65.9858 284.129C65.3826 286.239 65.4216 288.482 66.098 290.57C66.7743 292.659 68.0574 294.498 69.7835 295.855C70.151 296.167 70.5849 296.39 71.0521 296.509C71.4376 296.555 71.8284 296.523 72.2009 296.413C72.5733 296.303 72.9195 296.119 73.2182 295.871C74.1445 295.197 74.851 294.265 75.2487 293.191C75.5796 292.135 75.7583 291.038 75.7792 289.932L76.0625 285.664C76.3577 281.209 76.6249 276.614 75.5399 272.239C75.1848 270.803 74.5266 267.504 72.8671 267.305C71.2076 267.106 68.3195 269.598 67.2185 270.675Z" fill="#6927FF"/>
<path opacity="0.05" d="M65.0205 197.921C65.8184 203.01 63.5246 208.016 61.3066 212.678C62.5632 213.596 64.099 214.05 65.599 214.445C75.638 217.084 86.0743 217.869 96.3953 216.762C96.6426 215.039 96.874 213.213 96.1679 211.625C95.7291 210.64 94.9712 209.838 94.4885 208.873C93.6907 207.278 93.7704 205.423 93.8582 203.652L94.5723 188.564C89.6217 186.282 83.8813 188.42 78.4361 188.727C75.6158 188.887 72.7595 188.544 69.9791 189.042C68.535 189.301 63.9953 190.015 63.3132 191.503C62.631 192.991 64.7772 196.301 65.0205 197.921Z" fill="black"/>
<path opacity="0.05" d="M95.0469 252.344C93.0542 259.341 91.6098 266.482 90.7267 273.703C90.599 274.72 90.4674 275.789 89.853 276.61C88.6284 278.258 86.175 278.154 84.1405 277.887C83.6522 277.861 83.1761 277.725 82.7483 277.488C81.9824 276.969 81.8149 275.932 81.7231 275.011C80.3296 261.429 79.3988 247.81 78.9307 234.156C78.9108 233.634 95.9604 233.586 97.4205 234.954C98.8805 236.322 97.7476 241.439 97.4205 243.182C96.8859 246.286 95.9205 249.309 95.0469 252.344Z" fill="black"/>
<path d="M60 235.5L66.4486 247.398C68.7464 252.448 71.0601 257.553 72.1571 262.989C72.5972 265.261 72.8785 267.559 72.9988 269.87C73.1655 271.85 73.1039 273.843 72.8153 275.809C72.564 277.268 72.1013 278.688 71.8978 280.156C71.1 286.007 74.415 291.511 76.6848 296.956C78.646 301.632 79.8939 306.575 80.3868 311.622C80.5942 313.771 80.7099 316.053 81.9386 317.828C84.1845 317.154 86.3785 316.571 88.7201 316.835C89.139 313.4 86.9689 310.238 86.1711 306.863C84.707 300.681 87.9422 294.184 86.8412 287.926C86.2429 284.535 84.3879 281.345 84.5395 277.907C84.8227 271.637 85.9995 265.303 84.8028 259.16C83.4544 252.216 79.8577 244.02 79 237C78.3418 231.608 78 227 74 226C64 223.5 59 231.5 60 235.5Z" fill="#FBBEBE"/>
<path d="M78.1368 212.527C72.7714 211.41 67.4977 209.563 62.0206 209.436C61.7456 209.408 61.4684 209.46 61.2228 209.587C60.9555 209.808 60.777 210.118 60.7202 210.461C60.1537 212.415 59.6471 214.384 59.2003 216.368C57.7163 222.961 56.9863 230.244 60.2494 236.163C60.2175 234.24 61.4262 232.441 63.0418 231.376C64.6575 230.312 66.5922 229.881 68.507 229.705C70.4218 229.53 72.4682 229.602 74.2514 230.387C75.4975 230.953 76.5727 231.838 77.3689 232.951C78.165 234.064 78.6541 235.367 78.7871 236.729L97.6359 237.339C97.7462 237.372 97.8628 237.376 97.9751 237.351C98.0875 237.327 98.192 237.275 98.2792 237.2C98.3663 237.125 98.4334 237.03 98.4744 236.923C98.5153 236.815 98.5287 236.699 98.5135 236.585C99.2084 230.54 99.1829 224.433 98.4377 218.394C98.2302 216.707 98.2023 214.365 96.3035 213.731C94.0376 212.973 90.4554 213.859 88.034 213.755C84.707 213.615 81.397 213.204 78.1368 212.527Z" fill="#6927FF"/>
<path d="M95.2464 182.98L95.1865 191.356L76.1183 191.99C72.6199 192.109 69.0934 192.229 65.6827 193.007C64.7014 193.23 63.732 193.509 62.7666 193.785C61.7614 190.103 60.772 186.246 61.0353 182.493C61.1081 181.481 61.2845 180.478 61.5619 179.502C62.1683 177.396 63.3052 175.409 63.9115 173.327C64.1559 172.517 64.29 171.677 64.3104 170.831C64.2652 169.985 64.1315 169.147 63.9115 168.33C63.7366 167.659 63.6534 166.968 63.6642 166.276L65.1761 165.809C65.22 165.989 65.2559 166.164 65.2878 166.347C65.3516 166.726 65.4035 167.113 65.4394 167.5C65.5248 168.459 65.5514 169.422 65.5192 170.384C65.4673 172.306 65.208 174.448 66.4087 175.968C67.9685 177.918 70.9683 177.615 73.4177 177.128L79.8323 175.848C81.8588 175.449 84.1206 174.883 85.1777 173.108C85.6288 172.246 85.8668 171.289 85.8719 170.316V170.125C85.9673 168.006 85.7564 165.885 85.2456 163.827C85.09 163.181 84.8985 162.542 84.6831 161.916H85.3253C85.6953 161.976 86.0463 162.12 86.3506 162.339C86.5605 162.512 86.7271 162.732 86.8372 162.981L87.1923 162.834C88.6076 168.618 90.9402 174.139 94.1015 179.187C94.508 179.764 94.8303 180.397 95.0589 181.065C95.1538 181.428 95.2073 181.8 95.2185 182.174C95.2504 182.409 95.2464 182.692 95.2464 182.98Z" fill="#FF8983"/>
<path d="M75.1011 157.629C81.4902 157.629 86.6697 152.45 86.6697 146.062C86.6697 139.674 81.4902 134.495 75.1011 134.495C68.7119 134.495 63.5325 139.674 63.5325 146.062C63.5325 152.45 68.7119 157.629 75.1011 157.629Z" fill="#FBBEBE"/>
<path d="M54.541 171.78C53.049 174.049 52.5464 176.809 52.0916 179.49L49.1955 196.281C48.7966 198.579 48.4416 201.104 49.6184 203.118C50.0173 203.8 50.5758 204.39 50.867 205.112C51.087 205.838 51.2314 206.586 51.2978 207.342C51.976 211.19 55.7617 213.787 59.5594 214.72C60.9316 215.059 62.5353 215.191 63.6163 214.278C64.8131 213.284 64.8131 211.394 64.107 210.03C63.4009 208.666 62.1124 207.701 60.8638 206.787L56.727 203.74L59.1205 185.393C59.2801 184.073 56.388 168.964 54.541 171.78Z" fill="#FBBEBE"/>
<path d="M101.701 172.211C102.331 174.983 102.654 177.823 103.444 180.551C103.751 181.624 104.134 182.673 104.398 183.741C104.68 185.012 104.881 186.299 105 187.594L106.121 197.51C106.25 198.122 106.202 198.759 105.981 199.345C105.676 199.855 105.226 200.263 104.689 200.517C101.457 202.333 97.6607 202.867 94.0536 202.013C93.2234 201.765 92.3788 201.568 91.5245 201.423C90.1602 201.251 88.772 201.526 87.3957 201.423C84.6033 201.211 82.15 199.472 80.2152 197.454C79.0504 196.257 77.9933 194.295 79.0783 193.011C79.3814 192.701 79.7579 192.473 80.1729 192.347C80.5878 192.222 81.0278 192.203 81.4519 192.293C82.2967 192.482 83.1114 192.787 83.8733 193.198C86.544 194.433 89.4 195.218 92.3263 195.524C94.3209 195.735 96.858 195.396 97.5481 193.497C97.8832 192.576 97.6479 191.555 97.4125 190.602L95.4818 182.764C95.402 182.493 101.071 169.443 101.701 172.211Z" fill="#FBBEBE"/>
<path d="M67.9406 149.624C67.426 147.777 66.7039 145.468 68.152 144.215C68.6724 143.814 69.2994 143.574 69.9551 143.525C73.2063 143.126 76.5692 145.041 79.6807 144.02C80.6732 143.695 81.5506 143.091 82.207 142.279C82.8635 141.467 83.2709 140.483 83.3802 139.445C83.4894 138.406 83.2958 137.359 82.8227 136.428C82.3495 135.498 81.6172 134.724 80.7139 134.2C79.3536 133.402 77.73 133.247 76.1623 133.107C72.0335 132.728 67.7292 132.377 63.8677 133.905C60.0061 135.432 56.751 139.365 57.5488 143.437C57.9198 145.38 59.1206 147.051 60.3412 148.599C61.2787 149.775 65.0405 155.379 66.5524 155.299C68.6826 155.18 68.2757 150.824 67.9406 149.624Z" fill="#6927FF"/>
<path opacity="0.1" d="M80.7138 134.2C80.4834 134.067 80.2434 133.951 79.9958 133.853C80.6963 134.488 81.2176 135.297 81.5075 136.197C81.7975 137.097 81.8459 138.058 81.648 138.982C81.4501 139.907 81.0128 140.764 80.3798 141.467C79.7468 142.169 78.9403 142.693 78.0411 142.987C74.9295 144.008 71.5667 142.093 68.3155 142.492C67.6598 142.541 67.0328 142.78 66.5124 143.182C65.0643 144.435 65.7864 146.744 66.301 148.591C66.6361 149.787 67.043 154.147 64.9207 154.266H64.8848C65.5431 154.908 66.1374 155.327 66.5603 155.303C68.6825 155.184 68.2756 150.828 67.9405 149.628C67.4259 147.781 66.7039 145.472 68.152 144.219C68.6724 143.817 69.2994 143.578 69.9551 143.529C73.2062 143.13 76.5691 145.045 79.6806 144.024C80.6731 143.699 81.5505 143.095 82.207 142.283C82.8634 141.471 83.2709 140.487 83.3801 139.449C83.4893 138.41 83.2957 137.363 82.8226 136.432C82.3495 135.501 81.6171 134.728 80.7138 134.204V134.2Z" fill="#6927FF"/>
<path d="M95.0469 252.344C93.0542 259.341 91.6098 266.482 90.7267 273.703C90.599 274.72 90.4674 275.789 89.853 276.61C88.6284 278.258 86.175 278.154 84.1405 277.887C83.6522 277.861 83.1761 277.725 82.7483 277.488C81.9824 276.969 81.8149 275.932 81.7231 275.011C80.3296 261.429 79.3988 247.81 78.9307 234.156C78.9108 233.634 95.9604 233.586 97.4205 234.954C98.8805 236.322 97.7476 241.439 97.4205 243.182C96.8859 246.286 95.9205 249.309 95.0469 252.344Z" fill="#FBBEBE"/>
<path d="M82.2378 327.572C81.5477 327.596 80.7418 327.572 80.315 327.025C80.1067 326.707 79.9869 326.34 79.9679 325.96C79.6411 323.556 79.4812 321.132 79.4892 318.705C79.4892 317.82 79.5291 316.878 80.0238 316.149C80.3867 315.703 80.8004 315.302 81.2564 314.952C82.3136 313.975 83.0835 312.559 84.4478 312.108C85.0455 311.934 85.6792 311.926 86.2813 312.084C86.8834 312.242 87.4312 312.561 87.8665 313.006C88.7273 313.923 89.2603 315.1 89.3824 316.352C89.5818 317.836 89.4143 319.451 90.2001 320.739C90.5113 321.238 90.9461 321.645 91.2972 322.115C92.4939 323.711 93.567 326.834 91.0977 327.48C88.4808 328.162 84.9544 327.484 82.2378 327.572Z" fill="#6927FF"/>
<path d="M160.556 51C170.578 51 178.358 53.0739 183.895 57.2217C189.502 61.3003 192.306 67.3146 192.306 75.2645C192.306 83.4909 189.642 89.7817 184.316 94.1369C179.059 98.4921 171.945 100.67 162.974 100.67L155.825 100.67L155.825 123.171L134.168 123.171L134.168 51L160.556 51ZM160.871 85.634C167.109 85.634 170.228 82.1775 170.228 75.2645C170.228 68.9737 166.899 65.8283 160.24 65.8283H155.825L155.825 85.634L160.871 85.634Z" fill="#6927FF"/>
<path d="M105.786 95.537C109.622 95.537 112.879 96.9232 115.556 99.6955C118.233 102.378 119.571 105.598 119.571 109.354C119.571 113.11 118.233 116.375 115.556 119.147C112.879 121.83 109.622 123.171 105.786 123.171C101.949 123.171 98.692 121.83 96.0152 119.147C93.3384 116.375 92 113.11 92 109.354C92 105.598 93.3384 102.378 96.0152 99.6955C98.692 96.9232 101.949 95.537 105.786 95.537ZM105.786 51C109.622 51 112.879 52.3862 115.556 55.1586C118.233 57.8415 119.571 61.0611 119.571 64.8172C119.571 68.5733 118.233 71.8376 115.556 74.61C112.879 77.2929 109.622 78.6344 105.786 78.6344C101.949 78.6344 98.692 77.2929 96.0152 74.61C93.3384 71.8376 92 68.5733 92 64.8172C92 61.0611 93.3384 57.8415 96.0152 55.1586C98.692 52.3862 101.949 51 105.786 51Z" fill="#6927FF"/>
</svg>
