<svg width="18" height="18" viewBox="0 0 18 18" fill="none" xmlns="http://www.w3.org/2000/svg">
<rect x="0.25" y="0.25" width="17.5" height="17.5" rx="8.75" fill="white" stroke="#6927FF" stroke-width="0.5"/>
<path d="M9.72093 7.24359V14H8.29457V7.24359H9.72093ZM8.99225 4C9.29199 4 9.53488 4.07692 9.72093 4.23077C9.90698 4.38462 10 4.57692 10 4.80769C10 5.03846 9.90698 5.23077 9.72093 5.38462C9.53488 5.52991 9.29199 5.60256 8.99225 5.60256C8.70284 5.60256 8.46512 5.52991 8.27907 5.38462C8.09302 5.23077 8 5.03846 8 4.80769C8 4.57692 8.09302 4.38462 8.27907 4.23077C8.46512 4.07692 8.70284 4 8.99225 4Z" fill="#6927FF"/>
</svg>
