<svg width="14" height="21" viewBox="0 0 14 21" fill="none" xmlns="http://www.w3.org/2000/svg">
<path d="M9.00159 20.5308C9.62042 19.0174 9.83206 17.7923 9.78142 16.7188C9.72488 15.5203 9.34217 14.5342 8.87576 13.5756C8.73359 13.2834 8.58381 12.9936 8.43228 12.7004C7.59022 11.0712 6.69405 9.33733 6.74995 6.50493L6.76299 5.8441L6.31588 6.33088C4.88314 7.89075 4.43868 9.89064 4.3458 11.4775C4.29922 12.2735 4.34058 12.973 4.39356 13.4739C4.42008 13.7246 4.44956 13.9261 4.47258 14.0656C4.48409 14.1354 4.49399 14.1898 4.5011 14.2271L4.50954 14.2702L4.51192 14.2818L4.5126 14.285L4.5128 14.286L4.51287 14.2863C4.5129 14.2865 4.51292 14.2866 4.75739 14.2343L4.51292 14.2866L4.51756 14.3083L4.52595 14.3288C5.38002 16.4195 5.32285 17.8388 4.98035 18.8225C4.73188 19.5362 4.32824 20.04 3.96391 20.4239C3.88784 19.7032 3.67383 19.1523 3.36072 18.6705C3.03787 18.1737 2.60977 17.754 2.15498 17.3081C2.07189 17.2266 1.98791 17.1443 1.90352 17.0604C1.89898 17.0559 1.89388 17.0509 1.88825 17.0453C1.62111 16.7814 0.152853 15.331 0.2551 12.6391C0.35714 9.95276 2.02661 5.95516 8.19626 0.602069C8.1941 0.638281 8.1921 0.675888 8.19032 0.714863C8.16836 1.196 8.17942 1.88588 8.30952 2.73085C8.56992 4.42217 9.30663 6.7302 11.2023 9.22449C12.8807 11.4328 13.5224 13.2446 13.5705 14.7109C13.6183 16.1722 13.0776 17.3214 12.3274 18.2118C11.5738 19.1061 10.6101 19.7369 9.82735 20.1454C9.51188 20.31 9.22776 20.4375 9.00159 20.5308Z" fill="#FF8983" stroke="#F5564E" stroke-width="0.5"/>
</svg>
