<svg width="19" height="17" viewBox="0 0 19 17" fill="none" xmlns="http://www.w3.org/2000/svg">
<path fill-rule="evenodd" clip-rule="evenodd" d="M9.52647 16.619L9.27778 16.5301L2.31053 10.9027C1.23876 9.99711 0.591104 9.04546 0.26437 8.02206C-0.0611856 7.00235 -0.0549667 5.95201 0.115416 4.87225C0.565114 2.0224 2.90598 0.619019 5.02287 0.619019C6.11483 0.619019 7.14808 1.09694 7.97736 1.66082C8.60929 2.09051 9.14502 2.58519 9.52649 3.00145C9.90797 2.58519 10.4437 2.09051 11.0756 1.66082C11.9049 1.09694 12.9382 0.619019 14.0301 0.619019C16.147 0.619019 18.4879 2.0224 18.9376 4.87225C19.2955 7.14063 18.053 9.52208 16.7761 10.8707L16.7569 10.891L9.7752 16.5301L9.52647 16.619Z" fill="#FF8983"/>
</svg>
