<svg width="20" height="17" viewBox="0 0 20 17" fill="none" xmlns="http://www.w3.org/2000/svg">
<path fill-rule="evenodd" clip-rule="evenodd" d="M9.93818 16.4615L9.68949 16.3726L2.72224 10.7452C1.65048 9.83964 1.00282 8.88799 0.676082 7.86459C0.350527 6.84488 0.356746 5.79454 0.527129 4.71478C0.976827 1.86493 3.3177 0.461548 5.43458 0.461548C6.52654 0.461548 7.5598 0.939471 8.38908 1.50335C9.02101 1.93304 9.55673 2.42771 9.9382 2.84398C10.3197 2.42771 10.8554 1.93304 11.4873 1.50335C12.3166 0.939471 13.3499 0.461548 14.4418 0.461548C16.5587 0.461548 18.8996 1.86493 19.3493 4.71478C19.7072 6.98316 18.4647 9.36461 17.1878 10.7133L17.1686 10.7336L10.1869 16.3726L9.93818 16.4615Z" fill="#FF8983" stroke="#F5564E" stroke-width="0.5"/>
</svg>
