<svg width="198" height="27" viewBox="0 0 198 27" fill="none" xmlns="http://www.w3.org/2000/svg">
<path d="M129.417 1.91194C132.67 1.91194 135.196 2.59454 136.993 3.95975C138.814 5.3022 139.724 7.28175 139.724 9.89839C139.724 12.606 138.859 14.6766 137.13 16.1101C135.424 17.5435 133.114 18.2603 130.202 18.2603H127.881V25.6665H120.85V1.91194H129.417ZM129.519 13.3114C131.544 13.3114 132.557 12.1737 132.557 9.89839C132.557 7.82783 131.476 6.79255 129.314 6.79255H127.881V13.3114H129.519Z" fill="#6927FF"/>
<path d="M152.139 25.6665L151.217 21.0589H145.586L144.699 25.6665H137.361L144.289 1.91194H152.685L159.579 25.6665H152.139ZM146.576 16.1442H150.228L148.385 6.82668L146.576 16.1442Z" fill="#6927FF"/>
<path d="M168.917 1.22934C172.535 1.22934 175.459 2.31012 177.688 4.4717L174.582 8.12362C172.99 6.84943 171.295 6.21234 169.497 6.21234C168.655 6.21234 168.018 6.36023 167.586 6.65603C167.153 6.95182 166.937 7.37276 166.937 7.91884C166.937 8.3284 167.051 8.6697 167.279 8.94274C167.529 9.19303 167.927 9.43194 168.473 9.65948C169.042 9.88701 169.952 10.2056 171.204 10.6151C173.706 11.4115 175.504 12.4126 176.596 13.6186C177.711 14.8245 178.269 16.4741 178.269 18.5674C178.269 20.0919 177.859 21.4457 177.04 22.6289C176.243 23.7893 175.094 24.6995 173.593 25.3593C172.091 26.0192 170.316 26.3491 168.268 26.3491C166.175 26.3491 164.332 26.0192 162.739 25.3593C161.147 24.6995 159.804 23.8349 158.712 22.7654L162.159 18.977C163.957 20.5242 165.902 21.2979 167.995 21.2979C168.974 21.2979 169.713 21.1044 170.214 20.7176C170.714 20.3081 170.965 19.7847 170.965 19.1477C170.965 18.6698 170.851 18.2716 170.623 17.9531C170.419 17.6346 170.043 17.3388 169.497 17.0657C168.951 16.7927 168.155 16.4969 167.108 16.1783C164.355 15.3137 162.432 14.2784 161.34 13.0725C160.248 11.8438 159.702 10.3193 159.702 8.49905C159.702 7.02008 160.1 5.73451 160.896 4.64235C161.693 3.55019 162.785 2.70831 164.173 2.11672C165.584 1.52513 167.165 1.22934 168.917 1.22934Z" fill="#6927FF"/>
<path d="M188.648 1.22934C192.266 1.22934 195.19 2.31012 197.42 4.4717L194.314 8.12362C192.721 6.84943 191.026 6.21234 189.229 6.21234C188.387 6.21234 187.75 6.36023 187.317 6.65603C186.885 6.95182 186.669 7.37276 186.669 7.91884C186.669 8.3284 186.783 8.6697 187.01 8.94274C187.26 9.19303 187.659 9.43194 188.205 9.65948C188.774 9.88701 189.684 10.2056 190.935 10.6151C193.438 11.4115 195.235 12.4126 196.328 13.6186C197.443 14.8245 198 16.4741 198 18.5674C198 20.0919 197.59 21.4457 196.771 22.6289C195.975 23.7893 194.826 24.6995 193.324 25.3593C191.822 26.0192 190.048 26.3491 188 26.3491C185.907 26.3491 184.064 26.0192 182.471 25.3593C180.878 24.6995 179.536 23.8349 178.443 22.7654L181.891 18.977C183.688 20.5242 185.634 21.2979 187.727 21.2979C188.705 21.2979 189.445 21.1044 189.945 20.7176C190.446 20.3081 190.696 19.7847 190.696 19.1477C190.696 18.6698 190.582 18.2716 190.355 17.9531C190.15 17.6346 189.775 17.3388 189.229 17.0657C188.682 16.7927 187.886 16.4969 186.839 16.1783C184.086 15.3137 182.164 14.2784 181.071 13.0725C179.979 11.8438 179.433 10.3193 179.433 8.49905C179.433 7.02008 179.831 5.73451 180.628 4.64235C181.424 3.55019 182.516 2.70831 183.904 2.11672C185.315 1.52513 186.896 1.22934 188.648 1.22934Z" fill="#6927FF"/>
<path d="M110.837 17.1872C112.092 17.1872 113.157 17.6449 114.032 18.5601C114.907 19.4459 115.345 20.5088 115.345 21.7488C115.345 22.9889 114.907 24.0666 114.032 24.9818C113.157 25.8676 112.092 26.3105 110.837 26.3105C109.583 26.3105 108.518 25.8676 107.642 24.9818C106.767 24.0666 106.33 22.9889 106.33 21.7488C106.33 20.5088 106.767 19.4459 107.642 18.5601C108.518 17.6449 109.583 17.1872 110.837 17.1872ZM110.837 2.48376C112.092 2.48376 113.157 2.9414 114.032 3.85668C114.907 4.74243 115.345 5.80533 115.345 7.04538C115.345 8.28543 114.907 9.3631 114.032 10.2784C113.157 11.1641 112.092 11.607 110.837 11.607C109.583 11.607 108.518 11.1641 107.642 10.2784C106.767 9.3631 106.33 8.28543 106.33 7.04538C106.33 5.80533 106.767 4.74243 107.642 3.85668C108.518 2.9414 109.583 2.48376 110.837 2.48376Z" fill="#6927FF"/>
<path d="M0 25.7V2.32085H11.6725L11.4336 4.02735H2.04781V13.1401H10.1366V14.8466H2.04781V25.7H0Z" fill="white"/>
<path d="M17.0408 7.84993V25.7H15.0612V7.84993H17.0408ZM16.0169 0C16.472 0 16.836 0.136522 17.1091 0.409563C17.3821 0.682604 17.5186 1.02391 17.5186 1.43347C17.5186 1.84303 17.3821 2.18433 17.1091 2.45737C16.836 2.73041 16.472 2.86693 16.0169 2.86693C15.5846 2.86693 15.2319 2.73041 14.9589 2.45737C14.6858 2.18433 14.5493 1.84303 14.5493 1.43347C14.5493 1.02391 14.6858 0.682604 14.9589 0.409563C15.2319 0.136522 15.5846 0 16.0169 0Z" fill="white"/>
<path d="M32.3834 24.9491C31.2457 25.7 29.9942 26.0754 28.629 26.0754C27.2638 26.0754 26.1944 25.6772 25.4208 24.8809C24.6472 24.0617 24.2604 22.8899 24.2604 21.3655V9.45405H21.2569V7.84993H24.2604V3.58366L26.2399 3.34475V7.84993H30.8475L30.6086 9.45405H26.2399V21.2631C26.2399 22.3097 26.4561 23.0947 26.8884 23.618C27.3207 24.1186 27.9806 24.3689 28.8679 24.3689C29.7781 24.3689 30.6882 24.1072 31.5984 23.5839L32.3834 24.9491Z" fill="white"/>
<path d="M43.7767 7.4745C45.3922 7.4745 46.6209 7.95232 47.4627 8.90796C48.3274 9.86361 48.7597 11.2061 48.7597 12.9353V25.7H46.7801V13.2084C46.7801 11.7749 46.4957 10.7282 45.9269 10.0684C45.358 9.40854 44.5162 9.07861 43.4012 9.07861C42.2636 9.07861 41.2511 9.39716 40.3637 10.0343C39.499 10.6486 38.6685 11.5587 37.8722 12.7647V25.7H35.8926V7.84993H37.5991L37.8039 10.8875C38.532 9.8181 39.3966 8.9876 40.3978 8.39601C41.3989 7.78167 42.5252 7.4745 43.7767 7.4745Z" fill="white"/>
<path d="M68.4863 16.1094C68.4863 16.61 68.4636 17.0878 68.4181 17.5429H56.5067C56.6204 19.8637 57.1665 21.593 58.1449 22.7307C59.1461 23.8456 60.4544 24.403 62.0699 24.403C63.0028 24.403 63.8219 24.2665 64.5273 23.9935C65.2554 23.6977 66.0404 23.2426 66.8822 22.6283L67.8037 23.8911C66.9164 24.6192 66.0062 25.1653 65.0733 25.5293C64.1405 25.8934 63.1052 26.0754 61.9675 26.0754C59.6011 26.0754 57.7467 25.2677 56.4043 23.6522C55.0618 22.0367 54.3906 19.7955 54.3906 16.9285C54.3906 15.04 54.675 13.3904 55.2439 11.9797C55.8355 10.5462 56.666 9.44267 57.7354 8.66905C58.8275 7.87268 60.0903 7.4745 61.5238 7.4745C63.7991 7.4745 65.5284 8.24812 66.7116 9.79535C67.8948 11.3198 68.4863 13.4245 68.4863 16.1094ZM66.5409 15.4951C66.5409 13.4928 66.12 11.9342 65.2781 10.8193C64.459 9.68158 63.2303 9.11274 61.5921 9.11274C60.1131 9.11274 58.9185 9.68158 58.0084 10.8193C57.0983 11.9569 56.5977 13.6862 56.5067 16.007H66.5409V15.4951Z" fill="white"/>
<path d="M78.491 7.4745C79.6059 7.4745 80.6185 7.64515 81.5286 7.98645C82.4387 8.305 83.3261 8.7942 84.1907 9.45405L83.2692 10.751C82.4501 10.1822 81.6765 9.77259 80.9484 9.52231C80.2203 9.24927 79.4239 9.11274 78.5593 9.11274C77.3761 9.11274 76.4204 9.38579 75.6923 9.93187C74.9642 10.478 74.6002 11.2061 74.6002 12.1162C74.6002 12.9808 74.9073 13.6521 75.5217 14.1299C76.1588 14.6077 77.2965 15.0628 78.9347 15.4951C80.9598 16.0184 82.416 16.6783 83.3034 17.4746C84.2135 18.271 84.6686 19.4087 84.6686 20.8876C84.6686 22.4804 84.0542 23.7432 82.8255 24.6761C81.5969 25.609 80.061 26.0754 78.218 26.0754C76.8528 26.0754 75.6582 25.882 74.6343 25.4952C73.6104 25.0856 72.6775 24.5168 71.8356 23.7887L72.9278 22.5259C73.7242 23.163 74.5319 23.6408 75.351 23.9593C76.1929 24.2551 77.1372 24.403 78.1838 24.403C79.5035 24.403 80.5616 24.1072 81.3579 23.5157C82.1771 22.9013 82.5866 22.0594 82.5866 20.99C82.5866 20.2619 82.4501 19.6703 82.1771 19.2153C81.904 18.7602 81.4376 18.3734 80.7777 18.0548C80.1179 17.7135 79.1509 17.3722 77.8767 17.0309C75.9881 16.5304 74.6229 15.9046 73.781 15.1538C72.9619 14.4029 72.5524 13.4018 72.5524 12.1503C72.5524 11.2629 72.814 10.4666 73.3374 9.76122C73.8607 9.03311 74.566 8.47565 75.4534 8.08884C76.3636 7.67928 77.3761 7.4745 78.491 7.4745Z" fill="white"/>
<path d="M93.8896 7.4745C95.0045 7.4745 96.017 7.64515 96.9271 7.98645C97.8373 8.305 98.7247 8.7942 99.5893 9.45405L98.6678 10.751C97.8487 10.1822 97.075 9.77259 96.3469 9.52231C95.6188 9.24927 94.8225 9.11274 93.9578 9.11274C92.7746 9.11274 91.819 9.38579 91.0909 9.93187C90.3628 10.478 89.9987 11.2061 89.9987 12.1162C89.9987 12.9808 90.3059 13.6521 90.9202 14.1299C91.5573 14.6077 92.695 15.0628 94.3333 15.4951C96.3583 16.0184 97.8145 16.6783 98.7019 17.4746C99.612 18.271 100.067 19.4087 100.067 20.8876C100.067 22.4804 99.4528 23.7432 98.2241 24.6761C96.9954 25.609 95.4595 26.0754 93.6165 26.0754C92.2513 26.0754 91.0568 25.882 90.0329 25.4952C89.009 25.0856 88.0761 24.5168 87.2342 23.7887L88.3264 22.5259C89.1227 23.163 89.9305 23.6408 90.7496 23.9593C91.5915 24.2551 92.5357 24.403 93.5824 24.403C94.9021 24.403 95.9601 24.1072 96.7565 23.5157C97.5756 22.9013 97.9852 22.0594 97.9852 20.99C97.9852 20.2619 97.8487 19.6703 97.5756 19.2153C97.3026 18.7602 96.8361 18.3734 96.1763 18.0548C95.5164 17.7135 94.5494 17.3722 93.2752 17.0309C91.3867 16.5304 90.0215 15.9046 89.1796 15.1538C88.3605 14.4029 87.9509 13.4018 87.9509 12.1503C87.9509 11.2629 88.2126 10.4666 88.7359 9.76122C89.2592 9.03311 89.9646 8.47565 90.852 8.08884C91.7621 7.67928 92.7747 7.4745 93.8896 7.4745Z" fill="white"/>
</svg>
