<svg width="114" height="16" viewBox="0 0 114 16" fill="none" xmlns="http://www.w3.org/2000/svg">
<path d="M8.0844 0.779026L7.64525 1.65793C6.74698 1.23845 5.88864 1.01873 5.05025 1.01873C4.33164 1.01873 3.81264 1.15855 3.49326 1.45818C3.17387 1.7578 3.01418 2.21723 3.01418 2.89638V4.61423H9.1224V15.5805H7.92471V5.59301H3.01418V15.5805H1.79653V5.59301H0V4.61423H1.79653V2.83645C1.79653 1.93758 2.07599 1.23845 2.61495 0.759051C3.17387 0.2397 3.97233 0 5.01033 0C6.08825 0 7.12625 0.259675 8.0844 0.779026Z" fill="white"/>
<path d="M18.5642 15.1211C17.8655 15.5805 17.087 15.8002 16.2486 15.8002C15.4103 15.8002 14.7515 15.5605 14.2725 15.0612C13.8133 14.5618 13.5738 13.8427 13.5738 12.9238V5.593H11.7374V4.61422H13.5738V1.99749L14.7915 1.85767V4.6342H17.626L17.4663 5.593H14.7915V12.8439C14.7915 13.4831 14.9312 13.9625 15.1907 14.2821C15.4502 14.6017 15.8694 14.7615 16.4083 14.7615C16.9673 14.7615 17.5262 14.6017 18.0851 14.2821L18.5642 15.1211Z" fill="white"/>
<path d="M27.8263 5.25344C28.3453 5.83272 28.6048 6.67167 28.6048 7.73035V15.5805H27.3871V7.91012C27.3871 7.03122 27.2075 6.39202 26.8681 5.97254C26.5288 5.57304 26.0098 5.37329 25.3111 5.37329C24.6125 5.37329 23.9937 5.57304 23.4547 5.95257C22.9158 6.3321 22.3968 6.8914 21.9177 7.65045V15.5805H20.7V4.61424H21.738L21.8578 6.47192C22.297 5.81274 22.8359 5.29339 23.4547 4.93384C24.0735 4.57429 24.7522 4.37454 25.5307 4.37454C26.5488 4.37454 27.3073 4.67417 27.8263 5.25344Z" fill="white"/>
<path d="M40.6815 10.5668H33.3756C33.4355 11.985 33.7748 13.0437 34.3936 13.7428C34.9925 14.442 35.7909 14.7815 36.789 14.7815C37.3679 14.7815 37.8669 14.7016 38.3061 14.5219C38.7452 14.3421 39.2243 14.0624 39.7433 13.7029L40.3022 14.4819C39.7633 14.9214 39.2043 15.2609 38.6255 15.4807C38.0466 15.7004 37.4078 15.8202 36.7291 15.8202C35.2719 15.8202 34.1341 15.3209 33.3157 14.3221C32.4973 13.3234 32.0781 11.9451 32.0781 10.1873C32.0781 9.02872 32.2577 8.01 32.6171 7.1311C32.9764 6.2522 33.4754 5.57304 34.1541 5.09364C34.8128 4.61424 35.5913 4.37454 36.4696 4.37454C37.8669 4.37454 38.9249 4.85394 39.6635 5.79277C40.3821 6.7316 40.7613 8.02997 40.7613 9.6879C40.7214 9.98753 40.7214 10.2872 40.6815 10.5668ZM39.5437 9.30837C39.5437 8.06992 39.2842 7.11112 38.7852 6.43197C38.2861 5.75282 37.5076 5.39327 36.4896 5.39327C35.5913 5.39327 34.8527 5.75282 34.2938 6.43197C33.7349 7.1311 33.4355 8.18977 33.3756 9.62798H39.5437V9.30837Z" fill="white"/>
<path d="M48.726 4.69412C49.2849 4.89387 49.8239 5.1935 50.3628 5.61297L49.8039 6.41198C49.3049 6.05243 48.8258 5.81272 48.3866 5.65292C47.9275 5.47315 47.4485 5.39325 46.9095 5.39325C46.1909 5.39325 45.592 5.55305 45.1529 5.89263C44.7137 6.2322 44.4742 6.67165 44.4742 7.23095C44.4742 7.77028 44.6738 8.16978 45.0531 8.4694C45.4323 8.76903 46.131 9.04868 47.1291 9.30836C48.3667 9.62796 49.2649 10.0275 49.8239 10.5268C50.3828 11.0262 50.6423 11.7054 50.6423 12.6242C50.6423 13.603 50.263 14.382 49.5045 14.9613C48.746 15.5406 47.8078 15.8202 46.67 15.8202C45.8316 15.8202 45.093 15.7004 44.4742 15.4607C43.8354 15.221 43.2765 14.8614 42.7575 14.422L43.4362 13.6429C43.9153 14.0424 44.4143 14.3221 44.9333 14.5218C45.4523 14.7016 46.0112 14.8015 46.67 14.8015C47.4884 14.8015 48.1271 14.6217 48.6262 14.2422C49.1252 13.8627 49.3648 13.3633 49.3648 12.7041C49.3648 12.2647 49.2849 11.8851 49.1053 11.6055C48.9456 11.3258 48.6461 11.0861 48.2469 10.8864C47.8477 10.6866 47.2488 10.4869 46.4703 10.2672C45.3126 9.96753 44.4742 9.56803 43.9752 9.1086C43.4562 8.64918 43.2166 8.02995 43.2166 7.2709C43.2166 6.73158 43.3763 6.2322 43.6957 5.79275C44.0151 5.3533 44.4542 5.01372 45.0132 4.77402C45.5721 4.53432 46.1909 4.41447 46.8696 4.41447C47.5483 4.37452 48.1671 4.4744 48.726 4.69412Z" fill="white"/>
<path d="M58.1877 4.69412C58.7466 4.89387 59.2856 5.1935 59.8245 5.61297L59.2656 6.41198C58.7666 6.05243 58.2875 5.81272 57.8484 5.65292C57.3693 5.47315 56.8902 5.39325 56.3512 5.39325C55.6326 5.39325 55.0338 5.55305 54.5946 5.89263C54.1555 6.2322 53.916 6.67165 53.916 7.23095C53.916 7.77028 54.1156 8.16978 54.4948 8.4694C54.8741 8.76903 55.5728 9.04868 56.5708 9.30836C57.8084 9.62796 58.7067 10.0275 59.2656 10.5268C59.8245 11.0262 60.084 11.7054 60.084 12.6242C60.084 13.603 59.7048 14.382 58.9462 14.9613C58.1877 15.5406 57.2495 15.8202 56.1117 15.8202C55.2733 15.8202 54.5348 15.7004 53.916 15.4607C53.2772 15.221 52.7183 14.8614 52.1993 14.422L52.878 13.6429C53.357 14.0424 53.8561 14.3221 54.3751 14.5218C54.8941 14.7016 55.453 14.8015 56.1117 14.8015C56.9301 14.8015 57.5689 14.6217 58.0679 14.2422C58.567 13.8627 58.8065 13.3633 58.8065 12.7041C58.8065 12.2647 58.7267 11.8851 58.547 11.6055C58.3873 11.3258 58.0879 11.0861 57.6887 10.8864C57.2894 10.6866 56.6906 10.4869 55.9121 10.2672C54.7543 9.96753 53.916 9.56803 53.4169 9.1086C52.8979 8.64918 52.6584 8.02995 52.6584 7.2709C52.6584 6.73158 52.8181 6.2322 53.1375 5.79275C53.4568 5.3533 53.896 5.01372 54.4549 4.77402C55.0138 4.53432 55.6326 4.41447 56.3113 4.41447C57.01 4.37452 57.6288 4.4744 58.1877 4.69412Z" fill="white"/>
<path d="M76.5722 2.23719C77.6901 3.07614 78.229 4.29461 78.229 5.89262C78.229 7.55054 77.71 8.82895 76.6521 9.70785C75.5941 10.5867 74.1769 11.0262 72.3803 11.0262H70.9631V15.5805H66.6514V0.97876H71.9013C73.8974 0.97876 75.4544 1.39824 76.5722 2.23719ZM73.8375 5.89262C73.8375 4.61422 73.1788 3.97501 71.8414 3.97501H70.9631V7.97002H71.9611C73.2187 7.99 73.8375 7.29087 73.8375 5.89262Z" fill="white"/>
<path d="M85.8344 15.5805L85.2754 12.7441H81.8221L81.2632 15.5805H76.7519L81.0037 0.97876H86.1537L90.3856 15.5805H85.8344ZM82.421 9.72782H84.6566L83.5388 3.99499L82.421 9.72782Z" fill="white"/>
<path d="M101.524 2.55678L99.6277 4.79399C98.6496 4.01496 97.6116 3.61546 96.5137 3.61546C95.9947 3.61546 95.6155 3.71534 95.336 3.89511C95.0765 4.07489 94.9368 4.33456 94.9368 4.67414C94.9368 4.93381 95.0166 5.13356 95.1564 5.29336C95.2961 5.45316 95.5556 5.61296 95.8949 5.75279C96.2343 5.89262 96.7932 6.09237 97.5517 6.33207C99.0888 6.83144 100.187 7.43069 100.865 8.16977C101.544 8.90884 101.883 9.92757 101.883 11.206C101.883 12.1448 101.644 12.9638 101.145 13.6829C100.646 14.402 99.9471 14.9613 99.0089 15.3808C98.0907 15.7803 96.9928 15.98 95.7352 15.98C94.4577 15.98 93.3199 15.7803 92.3418 15.3808C91.3637 14.9813 90.5453 14.4419 89.8666 13.7828L91.9825 11.4457C93.0804 12.4045 94.2781 12.8639 95.5755 12.8639C96.1744 12.8639 96.6335 12.7441 96.9329 12.5044C97.2324 12.2646 97.392 11.945 97.392 11.5455C97.392 11.2459 97.3322 11.0062 97.1924 10.8065C97.0527 10.6067 96.8331 10.4269 96.4938 10.2671C96.1544 10.1073 95.6754 9.92757 95.0366 9.72782C93.3399 9.18849 92.1621 8.54929 91.5034 7.81022C90.8247 7.07114 90.5053 6.13232 90.5053 5.01371C90.5053 4.11484 90.7449 3.31584 91.2439 2.63668C91.723 1.95753 92.4017 1.45816 93.26 1.07863C94.1184 0.719082 95.0765 0.539307 96.1544 0.539307C98.3702 0.559282 100.167 1.23843 101.524 2.55678Z" fill="white"/>
<path d="M113.641 2.5568L111.724 4.794C110.746 4.01498 109.708 3.61548 108.61 3.61548C108.091 3.61548 107.712 3.71535 107.433 3.89513C107.173 4.0749 107.033 4.33458 107.033 4.67415C107.033 4.93383 107.113 5.13358 107.253 5.29338C107.393 5.45318 107.652 5.61298 107.992 5.7528C108.331 5.89263 108.89 6.09238 109.648 6.33208C111.185 6.83146 112.283 7.43071 112.962 8.16978C113.641 8.90886 113.98 9.92758 113.98 11.206C113.98 12.1448 113.741 12.9638 113.241 13.6829C112.742 14.402 112.044 14.9613 111.106 15.3808C110.187 15.7803 109.089 15.98 107.832 15.98C106.554 15.98 105.417 15.7803 104.438 15.3808C103.46 14.9813 102.642 14.4419 101.963 13.7828L104.079 11.4457C105.177 12.4045 106.375 12.8639 107.672 12.8639C108.271 12.8639 108.73 12.7441 109.03 12.5044C109.329 12.2647 109.489 11.9451 109.489 11.5456C109.489 11.2459 109.429 11.0062 109.289 10.8065C109.149 10.6067 108.93 10.427 108.59 10.2672C108.271 10.1273 107.792 9.94756 107.153 9.74781C105.456 9.20848 104.279 8.56928 103.62 7.83021C102.941 7.09113 102.622 6.1523 102.622 5.0337C102.622 4.13483 102.862 3.33583 103.361 2.65667C103.84 1.97752 104.518 1.47815 105.377 1.09862C106.235 0.739071 107.193 0.559296 108.271 0.559296C110.467 0.559296 112.263 1.23845 113.641 2.5568Z" fill="white"/>
</svg>
