<svg width="105" height="35" viewBox="0 0 105 35" fill="none" xmlns="http://www.w3.org/2000/svg">
<path d="M0.323929 24.1615V11.1491H7.0854L6.947 12.0989H1.51015V17.1709H6.19573V18.1207H1.51015V24.1615H0.323929Z" fill="white"/>
<path d="M10.1951 14.2265V24.1615H9.04838V14.2265H10.1951ZM9.60195 9.85736C9.86555 9.85736 10.0764 9.93335 10.2346 10.0853C10.3928 10.2373 10.4718 10.4272 10.4718 10.6552C10.4718 10.8832 10.3928 11.0731 10.2346 11.2251C10.0764 11.3771 9.86555 11.453 9.60195 11.453C9.35152 11.453 9.14723 11.3771 8.98907 11.2251C8.8309 11.0731 8.75182 10.8832 8.75182 10.6552C8.75182 10.4272 8.8309 10.2373 8.98907 10.0853C9.14723 9.93335 9.35152 9.85736 9.60195 9.85736Z" fill="white"/>
<path d="M19.0825 23.7435C18.4234 24.1615 17.6985 24.3704 16.9077 24.3704C16.1169 24.3704 15.4974 24.1488 15.0493 23.7055C14.6012 23.2496 14.3771 22.5974 14.3771 21.7489V15.1193H12.6373V14.2265H14.3771V11.8519L15.5238 11.719V14.2265H18.1928L18.0544 15.1193H15.5238V21.6919C15.5238 22.2745 15.649 22.7114 15.8994 23.0027C16.1499 23.2813 16.5321 23.4206 17.0461 23.4206C17.5733 23.4206 18.1005 23.275 18.6277 22.9837L19.0825 23.7435Z" fill="white"/>
<path d="M25.6822 14.0175C26.618 14.0175 27.3297 14.2834 27.8174 14.8153C28.3183 15.3472 28.5687 16.0944 28.5687 17.0569V24.1615H27.422V17.2089C27.422 16.411 27.2573 15.8285 26.9277 15.4612C26.5982 15.094 26.1106 14.9103 25.4647 14.9103C24.8057 14.9103 24.2192 15.0876 23.7052 15.4422C23.2043 15.7841 22.7232 16.2907 22.2619 16.9619V24.1615H21.1153V14.2265H22.1038L22.2224 15.9171C22.6442 15.3219 23.145 14.8597 23.7249 14.5304C24.3049 14.1885 24.9573 14.0175 25.6822 14.0175Z" fill="white"/>
<path d="M39.9957 18.8235C39.9957 19.1021 39.9825 19.3681 39.9561 19.6214H33.0563C33.1222 20.9131 33.4385 21.8756 34.0052 22.5088C34.5852 23.1293 35.343 23.4396 36.2788 23.4396C36.8192 23.4396 37.2937 23.3636 37.7023 23.2116C38.1241 23.047 38.5788 22.7937 39.0664 22.4518L39.6003 23.1547C39.0862 23.5599 38.559 23.8638 38.0186 24.0665C37.4782 24.2691 36.8785 24.3704 36.2195 24.3704C34.8488 24.3704 33.7746 23.9208 32.9969 23.0217C32.2193 22.1225 31.8305 20.8751 31.8305 19.2794C31.8305 18.2283 31.9952 17.3102 32.3247 16.525C32.6674 15.7272 33.1485 15.1129 33.768 14.6824C34.4006 14.2391 35.1321 14.0175 35.9625 14.0175C37.2805 14.0175 38.2822 14.4481 38.9676 15.3092C39.653 16.1577 39.9957 17.3292 39.9957 18.8235ZM38.8687 18.4816C38.8687 17.3672 38.6249 16.4997 38.1372 15.8791C37.6628 15.2459 36.951 14.9293 36.002 14.9293C35.1453 14.9293 34.4534 15.2459 33.9261 15.8791C33.3989 16.5123 33.109 17.4748 33.0563 18.7665H38.8687V18.4816Z" fill="white"/>
<path d="M45.791 14.0175C46.4368 14.0175 47.0234 14.1125 47.5506 14.3024C48.0778 14.4797 48.5918 14.752 49.0927 15.1193L48.5589 15.8411C48.0844 15.5245 47.6362 15.2966 47.2145 15.1573C46.7927 15.0053 46.3314 14.9293 45.8305 14.9293C45.1452 14.9293 44.5916 15.0813 44.1698 15.3852C43.7481 15.6892 43.5372 16.0944 43.5372 16.601C43.5372 17.0822 43.7151 17.4558 44.071 17.7218C44.44 17.9877 45.099 18.241 46.048 18.4816C47.2211 18.7729 48.0646 19.1401 48.5786 19.5834C49.1058 20.0266 49.3694 20.6598 49.3694 21.483C49.3694 22.3695 49.0136 23.0723 48.3018 23.5916C47.5901 24.1108 46.7004 24.3704 45.6328 24.3704C44.842 24.3704 44.1501 24.2628 43.5569 24.0475C42.9638 23.8195 42.4234 23.5029 41.9358 23.0977L42.5684 22.3948C43.0297 22.7494 43.4976 23.0154 43.9721 23.1926C44.4598 23.3573 45.0068 23.4396 45.6131 23.4396C46.3775 23.4396 46.9904 23.275 47.4517 22.9457C47.9262 22.6038 48.1634 22.1352 48.1634 21.54C48.1634 21.1347 48.0844 20.8055 47.9262 20.5522C47.768 20.2989 47.4978 20.0836 47.1156 19.9063C46.7334 19.7163 46.1732 19.5264 45.4351 19.3364C44.3412 19.0578 43.5504 18.7096 43.0627 18.2916C42.5882 17.8737 42.351 17.3165 42.351 16.62C42.351 16.1261 42.5025 15.6828 42.8057 15.2902C43.1088 14.885 43.5174 14.5747 44.0314 14.3594C44.5586 14.1315 45.1452 14.0175 45.791 14.0175Z" fill="white"/>
<path d="M54.7108 14.0175C55.3567 14.0175 55.9432 14.1125 56.4704 14.3024C56.9976 14.4797 57.5116 14.752 58.0125 15.1193L57.4787 15.8411C57.0042 15.5245 56.5561 15.2966 56.1343 15.1573C55.7125 15.0053 55.2512 14.9293 54.7504 14.9293C54.065 14.9293 53.5114 15.0813 53.0897 15.3852C52.6679 15.6892 52.457 16.0944 52.457 16.601C52.457 17.0822 52.635 17.4558 52.9908 17.7218C53.3599 17.9877 54.0189 18.241 54.9679 18.4816C56.1409 18.7729 56.9844 19.1401 57.4985 19.5834C58.0257 20.0266 58.2893 20.6598 58.2893 21.483C58.2893 22.3695 57.9334 23.0723 57.2217 23.5916C56.5099 24.1108 55.6203 24.3704 54.5527 24.3704C53.7619 24.3704 53.0699 24.2628 52.4768 24.0475C51.8837 23.8195 51.3433 23.5029 50.8556 23.0977L51.4883 22.3948C51.9496 22.7494 52.4175 23.0154 52.892 23.1926C53.3796 23.3573 53.9266 23.4396 54.5329 23.4396C55.2974 23.4396 55.9102 23.275 56.3715 22.9457C56.846 22.6038 57.0833 22.1352 57.0833 21.54C57.0833 21.1347 57.0042 20.8055 56.846 20.5522C56.6879 20.2989 56.4177 20.0836 56.0354 19.9063C55.6532 19.7163 55.0931 19.5264 54.355 19.3364C53.261 19.0578 52.4702 18.7096 51.9825 18.2916C51.508 17.8737 51.2708 17.3165 51.2708 16.62C51.2708 16.1261 51.4224 15.6828 51.7255 15.2902C52.0287 14.885 52.4372 14.5747 52.9513 14.3594C53.4785 14.1315 54.065 14.0175 54.7108 14.0175Z" fill="white"/>
<path d="M68.616 11.4094C70.5007 11.4094 71.9638 11.7893 73.005 12.5492C74.0594 13.2963 74.5866 14.3981 74.5866 15.8545C74.5866 17.3615 74.0858 18.5139 73.0841 19.3118C72.0956 20.1096 70.7577 20.5085 69.0707 20.5085H67.7263V24.6307H63.6536V11.4094H68.616ZM68.6753 17.7541C69.8483 17.7541 70.4348 17.1209 70.4348 15.8545C70.4348 14.702 69.8088 14.1258 68.5567 14.1258H67.7263V17.7541H68.6753Z" fill="white"/>
<path d="M82.5815 24.398L82.0477 21.8336H78.7856L78.2716 24.398H74.021L78.0343 11.1767H82.8979L86.8915 24.398H82.5815ZM79.3589 19.0981H81.4744L80.4068 13.9122L79.3589 19.0981Z" fill="white"/>
<path d="M95.3548 11.7247C95.2368 12.9878 95.3436 14.2164 95.6751 15.4107C96.0667 16.5552 96.6326 17.9098 97.3726 19.4746C97.9736 20.7494 98.4029 21.7867 98.6606 22.5863C98.9234 23.3309 99.0188 24.0877 98.947 24.8565C98.8341 26.0646 98.4071 27.0772 97.666 27.8943C96.9249 28.7113 95.8818 29.5001 94.5366 30.2607L95.8993 33.4625C97.9891 32.4391 99.6473 31.2923 100.874 30.022C102.106 28.6969 102.819 26.9909 103.014 24.9042C103.132 23.6411 102.995 22.4374 102.604 21.2929C102.272 20.0986 101.734 18.7466 100.989 17.2367C100.398 15.852 99.971 14.7873 99.7083 14.0427C99.4455 13.298 99.35 12.5412 99.4219 11.7724C99.5348 10.5643 99.9317 9.57661 100.613 8.80934C101.294 8.04206 102.279 7.27556 103.57 6.50982L102.199 3.39048C100.224 4.3692 98.6238 5.49368 97.3972 6.76391C96.2306 7.98436 95.5499 9.63797 95.3548 11.7247Z" fill="white"/>
<path d="M86.7726 9.51797C86.6546 10.781 86.7613 12.0097 87.0929 13.2039C87.4845 14.3484 88.0503 15.703 88.7904 17.2679C89.3914 18.5427 89.8207 19.5799 90.0783 20.3795C90.3411 21.1242 90.4366 21.8809 90.3647 22.6497C90.2518 23.8579 89.8248 24.8704 89.0837 25.6875C88.3427 26.5046 87.2995 27.2934 85.9544 28.054L87.317 31.2557C89.4069 30.2323 91.0651 29.0855 92.2917 27.8153C93.5234 26.4901 94.2367 24.7842 94.4317 22.6974C94.5498 21.4344 94.413 20.2306 94.0214 19.0862C93.6898 17.8919 93.1515 16.5398 92.4063 15.0299C91.8155 13.6453 91.3888 12.5806 91.126 11.8359C90.8632 11.0912 90.7678 10.3345 90.8396 9.56567C90.9525 8.35755 91.3495 7.36985 92.0305 6.60258C92.7116 5.83531 93.6972 5.0688 94.9874 4.30307L93.6171 1.18372C91.6422 2.16245 90.0415 3.28693 88.8149 4.55716C87.6484 5.77761 86.9676 7.43121 86.7726 9.51797Z" fill="white"/>
</svg>
