<svg width="41" height="23" viewBox="0 0 41 23" fill="none" xmlns="http://www.w3.org/2000/svg">
<rect y="3.57144" width="25" height="19.0476" rx="3" fill="white"/>
<path d="M6.57143 -5.20374e-08C7.22891 -2.32979e-08 7.7619 0.532994 7.7619 1.19048L7.7619 5.95238C7.7619 6.60986 7.22891 7.14286 6.57143 7.14286C5.91394 7.14286 5.38095 6.60986 5.38095 5.95238L5.38095 1.19048C5.38095 0.532995 5.91394 -8.07768e-08 6.57143 -5.20374e-08Z" fill="white"/>
<rect x="19.619" width="7.14286" height="2.38095" rx="1.19048" transform="rotate(90 19.619 0)" fill="white"/>
<rect x="2.38095" y="8.71429" width="2.38095" height="2.38095" fill="#837DFF"/>
<rect x="5.95239" y="8.71429" width="2.38095" height="2.38095" fill="#837DFF"/>
<rect x="9.5238" y="8.71429" width="2.38095" height="2.38095" fill="#837DFF"/>
<rect x="13.0952" y="8.71429" width="2.38095" height="2.38095" fill="#837DFF"/>
<rect x="16.6667" y="8.71429" width="2.38095" height="2.38095" fill="#837DFF"/>
<rect x="2.38095" y="13.2857" width="2.38095" height="2.38095" fill="#837DFF"/>
<rect x="5.95239" y="13.2857" width="2.38095" height="2.38095" fill="#837DFF"/>
<rect x="9.5238" y="13.2857" width="2.38095" height="2.38095" fill="#837DFF"/>
<rect x="13.0952" y="13.2857" width="2.38095" height="2.38095" fill="#837DFF"/>
<rect x="16.6667" y="13.2857" width="2.38095" height="2.38095" fill="#837DFF"/>
<rect x="20.2381" y="13.2857" width="2.38095" height="2.38095" fill="#837DFF"/>
<rect x="5.95239" y="17.8571" width="2.38095" height="2.38095" fill="#837DFF"/>
<rect x="9.5238" y="17.8571" width="2.38095" height="2.38095" fill="#837DFF"/>
<rect x="13.0952" y="17.8571" width="2.38095" height="2.38095" fill="#837DFF"/>
<rect x="16.6667" y="17.8571" width="2.38095" height="2.38095" fill="#837DFF"/>
<circle cx="26.5" cy="7.5" r="7" fill="#837DFF" stroke="white"/>
<path fill-rule="evenodd" clip-rule="evenodd" d="M39.0805 22L41 20.0806L34.6018 13.6824L33.962 14.3222L32.0426 12.4027L31.4027 13.0425L33.3222 14.962L32.6824 15.6018L39.0805 22Z" fill="white"/>
</svg>
