<svg width="23" height="20" viewBox="0 0 23 20" fill="none" xmlns="http://www.w3.org/2000/svg">
<path fill-rule="evenodd" clip-rule="evenodd" d="M6.67452 4.23864L11.7657 9.42386C12.0781 9.74205 12.0781 10.2579 11.7657 10.5761L6.67452 15.7614C6.3621 16.0795 5.85557 16.0795 5.54315 15.7614C5.23073 15.4432 5.23073 14.9273 5.54315 14.6091L9.26863 10.8148L0 10.8148L0 9.18522L9.26863 9.18522L5.54315 5.39091C5.23073 5.07272 5.23073 4.55683 5.54315 4.23864C5.85557 3.92045 6.3621 3.92045 6.67452 4.23864Z" fill="white"/>
<path fill-rule="evenodd" clip-rule="evenodd" d="M14 5V18H11V12.8492L9 14.8492V20H23V19.5V0.5V0H9V5.05026L11 7.05026V2H20L14 5Z" fill="white"/>
</svg>
