<svg width="43" height="31" viewBox="0 0 43 31" fill="none" xmlns="http://www.w3.org/2000/svg">
<path d="M28.9145 0C33.1417 0 36.4229 0.874698 38.7582 2.62409C41.1231 4.34433 42.3055 6.88096 42.3055 10.234C42.3055 13.7036 41.1822 16.3568 38.9356 18.1937C36.7186 20.0306 33.7181 20.949 29.9343 20.949L26.9191 20.949L26.9191 30.4395L17.7849 30.4395L17.7849 0L28.9145 0ZM29.0475 14.6075C31.6784 14.6075 32.9939 13.1496 32.9939 10.234C32.9939 7.58071 31.5898 6.25409 28.7815 6.25409L26.9191 6.25409L26.9191 14.6075L29.0475 14.6075Z" fill="#6927FF"/>
<path d="M5.81428 18.7842C7.4325 18.7842 8.8061 19.3689 9.93509 20.5382C11.0641 21.6697 11.6286 23.0276 11.6286 24.6118C11.6286 26.1961 11.0641 27.5728 9.93509 28.7421C8.8061 29.8737 7.4325 30.4395 5.81428 30.4395C4.19607 30.4395 2.82247 29.8737 1.69348 28.7421C0.564494 27.5728 0 26.1961 0 24.6118C0 23.0276 0.564494 21.6697 1.69348 20.5382C2.82247 19.3689 4.19607 18.7842 5.81428 18.7842ZM5.81428 0C7.4325 0 8.8061 0.584649 9.93509 1.75395C11.0641 2.88553 11.6286 4.24342 11.6286 5.82763C11.6286 7.41184 11.0641 8.7886 9.93509 9.9579C8.8061 11.0895 7.4325 11.6553 5.81428 11.6553C4.19607 11.6553 2.82247 11.0895 1.69348 9.9579C0.564494 8.7886 0 7.41184 0 5.82763C0 4.24342 0.564494 2.88553 1.69348 1.75395C2.82247 0.584649 4.19607 0 5.81428 0Z" fill="#6927FF"/>
</svg>
