<svg width="17" height="19" viewBox="0 0 17 19" fill="none" xmlns="http://www.w3.org/2000/svg">
<mask id="path-1-inside-1" fill="white">
<path fill-rule="evenodd" clip-rule="evenodd" d="M8.41171 18.4615C8.41171 18.4615 16.4117 13.3752 16.4117 7.53532C16.4117 3.37368 12.83 0 8.41171 0C3.99343 0 0.411713 3.37368 0.411713 7.53532C0.411713 13.3752 8.41171 18.4615 8.41171 18.4615ZM8.5 11C10.433 11 12 9.433 12 7.5C12 5.567 10.433 4 8.5 4C6.567 4 5 5.567 5 7.5C5 9.433 6.567 11 8.5 11Z"/>
</mask>
<path fill-rule="evenodd" clip-rule="evenodd" d="M8.41171 18.4615C8.41171 18.4615 16.4117 13.3752 16.4117 7.53532C16.4117 3.37368 12.83 0 8.41171 0C3.99343 0 0.411713 3.37368 0.411713 7.53532C0.411713 13.3752 8.41171 18.4615 8.41171 18.4615ZM8.5 11C10.433 11 12 9.433 12 7.5C12 5.567 10.433 4 8.5 4C6.567 4 5 5.567 5 7.5C5 9.433 6.567 11 8.5 11Z" fill="#837DFF"/>
<path d="M8.41171 18.4615L8.14345 18.8835L8.41171 19.054L8.67998 18.8835L8.41171 18.4615ZM15.9117 7.53532C15.9117 10.2432 14.0418 12.8496 12.058 14.835C11.0785 15.8152 10.0971 16.6185 9.35981 17.177C8.99159 17.4559 8.68534 17.6729 8.47208 17.8196C8.36547 17.893 8.28218 17.9487 8.2261 17.9857C8.19806 18.0042 8.17683 18.0181 8.16289 18.0271C8.15592 18.0316 8.15077 18.0349 8.14751 18.037C8.14588 18.038 8.14472 18.0388 8.14404 18.0392C8.1437 18.0394 8.14348 18.0396 8.14338 18.0396C8.14333 18.0397 8.14335 18.0397 8.14332 18.0397C8.14337 18.0396 8.14345 18.0396 8.41171 18.4615C8.67998 18.8835 8.68012 18.8834 8.68028 18.8833C8.68038 18.8832 8.68058 18.8831 8.68077 18.883C8.68116 18.8827 8.68167 18.8824 8.6823 18.882C8.68356 18.8812 8.6853 18.8801 8.68751 18.8787C8.69194 18.8758 8.69827 18.8717 8.70644 18.8665C8.72277 18.8559 8.74646 18.8404 8.77701 18.8203C8.83812 18.7799 8.9267 18.7207 9.03885 18.6435C9.26309 18.4893 9.58183 18.2633 9.96361 17.9741C10.7263 17.3964 11.7449 16.5631 12.7654 15.5418C14.7816 13.524 16.9117 10.6673 16.9117 7.53532H15.9117ZM8.41171 0.5C12.5825 0.5 15.9117 3.67759 15.9117 7.53532H16.9117C16.9117 3.06977 13.0775 -0.5 8.41171 -0.5V0.5ZM0.911713 7.53532C0.911713 3.67759 4.24097 0.5 8.41171 0.5V-0.5C3.7459 -0.5 -0.0882874 3.06977 -0.0882874 7.53532H0.911713ZM8.41171 18.4615C8.67998 18.0396 8.68006 18.0396 8.6801 18.0397C8.68008 18.0397 8.68009 18.0397 8.68004 18.0396C8.67994 18.0396 8.67972 18.0394 8.67938 18.0392C8.6787 18.0388 8.67754 18.038 8.67591 18.037C8.67265 18.0349 8.66751 18.0316 8.66054 18.0271C8.6466 18.0181 8.62537 18.0042 8.59733 17.9857C8.54124 17.9487 8.45795 17.893 8.35135 17.8196C8.13809 17.6729 7.83183 17.4559 7.46361 17.177C6.72633 16.6185 5.74491 15.8152 4.7654 14.835C2.78164 12.8496 0.911713 10.2432 0.911713 7.53532H-0.0882874C-0.0882874 10.6673 2.04179 13.524 4.05802 15.5418C5.07851 16.5631 6.0971 17.3964 6.85981 17.9741C7.24159 18.2633 7.56034 18.4893 7.78458 18.6435C7.89672 18.7207 7.98531 18.7799 8.04641 18.8203C8.07696 18.8404 8.10065 18.8559 8.11699 18.8665C8.12515 18.8717 8.13148 18.8758 8.13591 18.8787C8.13813 18.8801 8.13987 18.8812 8.14113 18.882C8.14176 18.8824 8.14226 18.8827 8.14265 18.883C8.14284 18.8831 8.14304 18.8832 8.14314 18.8833C8.14331 18.8834 8.14345 18.8835 8.41171 18.4615ZM11.5 7.5C11.5 9.15685 10.1569 10.5 8.5 10.5V11.5C10.7091 11.5 12.5 9.70914 12.5 7.5H11.5ZM8.5 4.5C10.1569 4.5 11.5 5.84315 11.5 7.5H12.5C12.5 5.29086 10.7091 3.5 8.5 3.5V4.5ZM5.5 7.5C5.5 5.84315 6.84315 4.5 8.5 4.5V3.5C6.29086 3.5 4.5 5.29086 4.5 7.5H5.5ZM8.5 10.5C6.84315 10.5 5.5 9.15685 5.5 7.5H4.5C4.5 9.70914 6.29086 11.5 8.5 11.5V10.5Z" fill="#6927FF" mask="url(#path-1-inside-1)"/>
</svg>
