<svg width="25" height="23" viewBox="0 0 25 23" fill="none" xmlns="http://www.w3.org/2000/svg">
<rect y="3.57143" width="25" height="19.0476" rx="3" fill="#837DFF"/>
<path d="M4.57143 -5.20374e-08C5.22891 -2.32979e-08 5.7619 0.532994 5.7619 1.19048L5.7619 5.95238C5.7619 6.60986 5.22891 7.14286 4.57143 7.14286V7.14286C3.91394 7.14286 3.38095 6.60986 3.38095 5.95238L3.38095 1.19048C3.38095 0.532995 3.91394 -8.07768e-08 4.57143 -5.20374e-08V-5.20374e-08Z" fill="#837DFF"/>
<rect x="21.619" width="7.14286" height="2.38095" rx="1.19048" transform="rotate(90 21.619 0)" fill="#837DFF"/>
<rect x="2.38095" y="8.71429" width="2.38095" height="2.38095" fill="white"/>
<rect x="5.95239" y="8.71429" width="2.38095" height="2.38095" fill="white"/>
<rect x="9.5238" y="8.71429" width="2.38095" height="2.38095" fill="white"/>
<rect x="13.0952" y="8.71429" width="2.38095" height="2.38095" fill="white"/>
<rect x="16.6667" y="8.71429" width="2.38095" height="2.38095" fill="white"/>
<rect x="20.2381" y="8.71429" width="2.38095" height="2.38095" fill="white"/>
<rect x="2.38095" y="13.2857" width="2.38095" height="2.38095" fill="white"/>
<rect x="5.95239" y="13.2857" width="2.38095" height="2.38095" fill="white"/>
<rect x="9.5238" y="13.2857" width="2.38095" height="2.38095" fill="white"/>
<rect x="13.0952" y="13.2857" width="2.38095" height="2.38095" fill="white"/>
<rect x="16.6667" y="13.2857" width="2.38095" height="2.38095" fill="white"/>
<rect x="20.2381" y="13.2857" width="2.38095" height="2.38095" fill="white"/>
<rect x="5.95239" y="17.8571" width="2.38095" height="2.38095" fill="white"/>
<rect x="9.5238" y="17.8571" width="2.38095" height="2.38095" fill="white"/>
<rect x="13.0952" y="17.8571" width="2.38095" height="2.38095" fill="white"/>
<rect x="16.6667" y="17.8571" width="2.38095" height="2.38095" fill="white"/>
</svg>
