<svg width="19" height="19" viewBox="0 0 19 19" fill="none" xmlns="http://www.w3.org/2000/svg">
<path fill-rule="evenodd" clip-rule="evenodd" d="M10.4289 16.869C15.1233 16.869 18.9289 13.2873 18.9289 8.86902C18.9289 4.45074 15.1233 0.869019 10.4289 0.869019C5.73444 0.869019 1.92886 4.45074 1.92886 8.86902C1.92886 10.1036 2.22599 11.2728 2.75661 12.3169L0.428864 18.369L6.78533 16.0989C7.8896 16.5927 9.12494 16.869 10.4289 16.869Z" fill="#837DFF"/>
<path d="M6.08453 7.58301C6.44453 7.58301 6.74453 7.70301 6.98453 7.94301C7.22453 8.18301 7.34453 8.47701 7.34453 8.82501C7.34453 9.17301 7.22453 9.47301 6.98453 9.72501C6.74453 9.96501 6.44453 10.085 6.08453 10.085C5.73653 10.085 5.44253 9.96501 5.20253 9.72501C4.96253 9.47301 4.84253 9.17301 4.84253 8.82501C4.84253 8.47701 4.96253 8.18301 5.20253 7.94301C5.44253 7.70301 5.73653 7.58301 6.08453 7.58301Z" fill="white"/>
<path d="M10.4087 7.58301C10.7687 7.58301 11.0687 7.70301 11.3087 7.94301C11.5487 8.18301 11.6687 8.47701 11.6687 8.82501C11.6687 9.17301 11.5487 9.47301 11.3087 9.72501C11.0687 9.96501 10.7687 10.085 10.4087 10.085C10.0607 10.085 9.76675 9.96501 9.52675 9.72501C9.28675 9.47301 9.16675 9.17301 9.16675 8.82501C9.16675 8.47701 9.28675 8.18301 9.52675 7.94301C9.76675 7.70301 10.0607 7.58301 10.4087 7.58301Z" fill="white"/>
<path d="M14.733 7.58301C15.093 7.58301 15.393 7.70301 15.633 7.94301C15.873 8.18301 15.993 8.47701 15.993 8.82501C15.993 9.17301 15.873 9.47301 15.633 9.72501C15.393 9.96501 15.093 10.085 14.733 10.085C14.385 10.085 14.091 9.96501 13.851 9.72501C13.611 9.47301 13.491 9.17301 13.491 8.82501C13.491 8.47701 13.611 8.18301 13.851 7.94301C14.091 7.70301 14.385 7.58301 14.733 7.58301Z" fill="white"/>
</svg>
