<svg width="24" height="24" viewBox="0 0 24 24" fill="none" xmlns="http://www.w3.org/2000/svg">
<circle cx="12" cy="12" r="12" fill="white"/>
<path d="M14.41 9.195V20.409H10.252V9.195H14.41ZM12.331 3C13.003 3 13.556 3.217 13.99 3.651C14.438 4.071 14.662 4.596 14.662 5.226C14.662 5.856 14.438 6.388 13.99 6.822C13.556 7.242 13.003 7.452 12.331 7.452C11.659 7.452 11.099 7.242 10.651 6.822C10.217 6.388 10 5.856 10 5.226C10 4.596 10.217 4.071 10.651 3.651C11.099 3.217 11.659 3 12.331 3Z" fill="#837DFF"/>
</svg>
