<svg width="11" height="21" viewBox="0 0 11 21" fill="none" xmlns="http://www.w3.org/2000/svg">
<path fill-rule="evenodd" clip-rule="evenodd" d="M7.41137 1.2642e-05L7.41137 3.85196L5.07094 3.85196L5.07094 1.23382e-05L7.41137 1.2642e-05Z" fill="white"/>
<path fill-rule="evenodd" clip-rule="evenodd" d="M7.41137 16.383L7.41137 20.235L5.07094 20.235L5.07094 16.383L7.41137 16.383Z" fill="white"/>
<path d="M6.47519 3.12054C8.15249 3.12054 9.60876 3.65364 10.844 4.71984L8.99115 6.90424C8.60107 6.61818 8.2175 6.39714 7.84043 6.24111C7.47637 6.08509 7.0863 6.00707 6.67022 6.00707C5.87708 6.00707 5.25946 6.36464 4.81738 7.07977C4.3883 7.7949 4.17376 8.85459 4.17376 10.2588C4.17376 11.6631 4.3948 12.7163 4.83689 13.4184C5.27897 14.1076 5.90958 14.4521 6.72873 14.4521C7.17081 14.4521 7.58039 14.3611 7.95746 14.1791C8.34753 13.997 8.77661 13.724 9.24469 13.3599L11 15.5833C10.4539 16.1294 9.79079 16.5845 9.01065 16.9486C8.24351 17.2996 7.41786 17.4752 6.5337 17.4752C5.19445 17.4752 4.03724 17.2021 3.06206 16.656C2.08688 16.0969 1.33274 15.2778 0.799646 14.1986C0.266549 13.1194 0 11.8061 0 10.2588C0 8.77658 0.27305 7.50235 0.81915 6.43615C1.36525 5.35695 2.12589 4.5378 3.10107 3.9787C4.07625 3.4066 5.20095 3.12054 6.47519 3.12054Z" fill="white"/>
</svg>
