<svg width="26" height="40" viewBox="0 0 26 40" fill="none" xmlns="http://www.w3.org/2000/svg">
<path d="M14.6594 14.6183C14.528 16.0235 14.6468 17.3904 15.0157 18.719C15.4513 19.9923 16.0809 21.4994 16.9042 23.2403C17.5728 24.6585 18.0505 25.8125 18.3371 26.7021C18.6294 27.5305 18.7356 28.3724 18.6557 29.2278C18.5301 30.5718 18.0551 31.6984 17.2306 32.6074C16.4061 33.5164 15.2456 34.3939 13.7491 35.2401L15.2651 38.8021C17.5901 37.6636 19.4349 36.3878 20.7995 34.9746C22.1698 33.5003 22.9634 31.6024 23.1804 29.2808C23.3117 27.8757 23.1595 26.5364 22.7239 25.2632C22.355 23.9345 21.756 22.4303 20.927 20.7505C20.2698 19.21 19.795 18.0255 19.5027 17.1971C19.2103 16.3686 19.1041 15.5267 19.184 14.6714C19.3096 13.3273 19.7513 12.2284 20.509 11.3748C21.2666 10.5212 22.3632 9.66846 23.7986 8.81656L22.2741 5.34619C20.077 6.43505 18.2961 7.68607 16.9315 9.09924C15.6337 10.457 14.8763 12.2967 14.6594 14.6183Z" fill="white"/>
<path d="M2.84542 9.89728C2.71411 11.3024 2.83288 12.6694 3.20174 13.998C3.6374 15.2713 4.26692 16.7784 5.09027 18.5192C5.75889 19.9375 6.23652 21.0915 6.52315 21.981C6.8155 22.8095 6.92171 23.6514 6.84178 24.5067C6.71618 25.8508 6.24113 26.9774 5.41665 27.8863C4.59217 28.7953 3.43167 29.6729 1.93516 30.5191L3.45113 34.0811C5.77612 32.9426 7.62093 31.6667 8.98554 30.2536C10.3559 28.7793 11.1495 26.8814 11.3665 24.5598C11.4978 23.1546 11.3456 21.8154 10.9099 20.5422C10.5411 19.2135 9.94211 17.7093 9.11305 16.0295C8.45584 14.489 7.98107 13.3045 7.68873 12.476C7.39638 11.6476 7.29017 10.8057 7.3701 9.95035C7.49571 8.60627 7.93735 7.50743 8.69502 6.65382C9.4527 5.80021 10.5492 4.94745 11.9847 4.09555L10.4601 0.625182C8.26304 1.71404 6.48219 2.96506 5.11757 4.37823C3.81976 5.73601 3.06238 7.5757 2.84542 9.89728Z" fill="white"/>
</svg>
